<svg width="646" height="29" viewBox="0 0 646 29" fill="none" xmlns="http://www.w3.org/2000/svg">
<path fill-rule="evenodd" clip-rule="evenodd" d="M322.485 20.6061C328.175 20.6061 332.788 15.9932 332.788 10.303C332.788 4.61282 328.175 0 322.485 0C316.795 0 312.182 4.61282 312.182 10.303C312.182 15.9932 316.795 20.6061 322.485 20.6061ZM306.141 9.27273L306.142 9.35227H10.3024C10.3028 9.32581 10.303 9.29929 10.303 9.27273C10.303 6.42762 7.99662 4.12121 5.15152 4.12121C2.30641 4.12121 0 6.42762 0 9.27273C0 12.1178 2.30641 14.4242 5.15152 14.4242C7.62635 14.4242 9.69358 12.6791 10.1897 10.3523H306.17C306.693 20.3421 314.439 28.3182 323.985 28.3182C333.531 28.3182 341.277 20.3421 341.8 10.3523H634.78C635.276 12.6791 637.343 14.4242 639.818 14.4242C642.293 14.4242 644.36 12.6791 644.856 10.3523H646V9.35227H644.969C644.97 9.32581 644.97 9.29929 644.97 9.27273C644.97 6.42762 642.663 4.12121 639.818 4.12121C636.973 4.12121 634.667 6.42762 634.667 9.27273C634.667 9.29929 634.667 9.32581 634.667 9.35227H341.828L341.828 9.27273H340.828C340.828 19.2732 333.258 27.3182 323.985 27.3182C314.712 27.3182 307.141 19.2732 307.141 9.27273H306.141Z" fill="url(#paint0_linear_35_13359)"/>
<defs>
<linearGradient id="paint0_linear_35_13359" x1="0" y1="14.1591" x2="646" y2="14.1591" gradientUnits="userSpaceOnUse">
<stop offset="0.253125" stop-color="#590DA6"/>
<stop offset="1" stop-color="#D43F8D"/>
</linearGradient>
</defs>
</svg>
