<svg width="258" height="12" viewBox="0 0 258 12" fill="none" xmlns="http://www.w3.org/2000/svg">
<path fill-rule="evenodd" clip-rule="evenodd" d="M129 8C131.209 8 133 6.20914 133 4C133 1.79086 131.209 0 129 0C126.791 0 125 1.79086 125 4C125 6.20914 126.791 8 129 8ZM122.044 4L122.044 4.01268H3.99996L4 4C4 2.89543 3.10457 2 2 2C0.895431 2 0 2.89543 0 4L3.93497e-05 4.01268H0V4.42482H0.0452105C0.239991 5.32532 1.04121 6 2 6C2.95879 6 3.76001 5.32532 3.95479 4.42482H122.056C122.274 8.20606 125.381 11.2061 129.188 11.2061C132.994 11.2061 136.102 8.20606 136.32 4.42482H254.045C254.24 5.32532 255.041 6 256 6C256.959 6 257.76 5.32532 257.955 4.42482H258V4.01268C258 4.00846 258 4.00423 258 4C258 2.89543 257.105 2 256 2C254.895 2 254 2.89543 254 4C254 4.00423 254 4.00846 254 4.01268H136.332L136.332 4H135.92C135.92 7.75473 132.905 10.7939 129.188 10.7939C125.471 10.7939 122.456 7.75473 122.456 4H122.044Z" fill="url(#paint0_linear_35_17757)"/>
<defs>
<linearGradient id="paint0_linear_35_17757" x1="0" y1="5.60303" x2="258" y2="5.60303" gradientUnits="userSpaceOnUse">
<stop offset="0.253125" stop-color="#590DA6"/>
<stop offset="1" stop-color="#D43F8D"/>
</linearGradient>
</defs>
</svg>
