<svg width="470" height="29" viewBox="0 0 470 29" fill="none" xmlns="http://www.w3.org/2000/svg">
<path fill-rule="evenodd" clip-rule="evenodd" d="M235 20.7048C240.717 20.7048 245.352 16.0699 245.352 10.3524C245.352 4.63494 240.717 0 235 0C229.283 0 224.648 4.63494 224.648 10.3524C224.648 16.0699 229.283 20.7048 235 20.7048ZM217.545 9.31718L217.546 9.3995H10.3518C10.3522 9.37212 10.3524 9.34467 10.3524 9.31718C10.3524 6.45844 8.03495 4.14097 5.17621 4.14097C2.31747 4.14097 0 6.45844 0 9.31718C0 9.34467 0.000214321 9.37212 0.000641382 9.3995H0V10.3995H0.113329C0.610954 12.7387 2.68867 14.4934 5.17621 14.4934C7.66376 14.4934 9.74147 12.7387 10.2391 10.3995H217.574C218.099 20.4372 225.881 28.4515 235.472 28.4515C245.063 28.4515 252.845 20.4372 253.37 10.3995H459.761C460.259 12.7387 462.336 14.4934 464.824 14.4934C467.311 14.4934 469.389 12.7387 469.887 10.3995H470V9.3995H469.999C470 9.37212 470 9.34467 470 9.31718C470 6.45844 467.683 4.14097 464.824 4.14097C461.965 4.14097 459.648 6.45844 459.648 9.31718C459.648 9.34467 459.648 9.37212 459.648 9.3995H253.399L253.399 9.31718H252.399C252.399 19.3667 244.791 27.4515 235.472 27.4515C226.153 27.4515 218.545 19.3667 218.545 9.31718H217.545Z" fill="url(#paint0_linear_35_13349)"/>
<defs>
<linearGradient id="paint0_linear_35_13349" x1="4.37722e-07" y1="14.2258" x2="708.456" y2="14.2258" gradientUnits="userSpaceOnUse">
<stop stop-color="#D33F8D"/>
<stop offset="1" stop-color="white"/>
</linearGradient>
</defs>
</svg>
