<svg width="75" height="75" viewBox="0 0 75 75" fill="none" xmlns="http://www.w3.org/2000/svg">
<g clip-path="url(#clip0_35_13225)">
<path d="M75 37.7292C75 16.8919 58.2107 0 37.5 0C16.7893 0 0 16.8919 0 37.7292C0 56.5609 13.7132 72.1696 31.6406 75V48.6353H22.1191V37.7292H31.6406V29.417C31.6406 19.9611 37.2391 14.738 45.8049 14.738C49.9077 14.738 54.1992 15.4749 54.1992 15.4749V24.7598H49.4706C44.8121 24.7598 43.3594 27.6681 43.3594 30.6518V37.7292H53.7598L52.0972 48.6353H43.3594V75C61.2868 72.1696 75 56.5609 75 37.7292Z" fill="#1877F2"/>
<path d="M51.9032 48.4951L53.5616 37.7184H43.1872V30.725C43.1872 27.7767 44.6363 24.9029 49.2831 24.9029H54V15.7282C54 15.7282 49.7192 15 45.6267 15C37.0822 15 31.4977 20.1612 31.4977 29.5049V37.7184H22V48.4951H31.4977V74.5471C33.4022 74.8449 35.3541 75 37.3425 75C39.3308 75 41.2828 74.8449 43.1872 74.5471V48.4951H51.9032Z" fill="white"/>
</g>
<defs>
<clipPath id="clip0_35_13225">
<rect width="75" height="75" fill="white"/>
</clipPath>
</defs>
</svg>
