<svg width="75" height="75" viewBox="0 0 75 75" fill="none" xmlns="http://www.w3.org/2000/svg">
<path d="M71 37.9666C71 35.5515 70.7813 33.2293 70.375 31H38V44.1747H56.5C55.7031 48.432 53.2813 52.0392 49.6406 54.4543V63H60.75C67.25 57.0706 71 48.3391 71 37.9666Z" fill="#4285F4"/>
<path d="M37.4494 72C46.6493 72 54.3624 68.9046 60 63.6251L48.988 54.9517C45.9369 57.0258 42.0339 58.2514 37.4494 58.2514C28.5748 58.2514 21.0631 52.1706 18.3837 44H7V52.9562C12.6067 64.2537 24.1297 72 37.4494 72Z" fill="#34A853"/>
<path d="M18 44.0577C17.3189 41.9868 16.9319 39.7748 16.9319 37.5C16.9319 35.2252 17.3189 33.0132 18 30.9423V22H6.62229C4.23839 26.8096 2.9979 32.1177 3 37.5C3 43.0693 4.31579 48.3406 6.62229 53L18 44.0577Z" fill="#FBBC05"/>
<path d="M37.8796 16.7486C42.9529 16.7486 47.5079 18.4927 51.089 21.9181L61 12.0034C55.0157 6.42536 47.1937 3 37.8796 3C24.3717 3 12.6859 10.7464 7 22.0438L18.5445 31C21.2618 22.8294 28.8796 16.7486 37.8796 16.7486Z" fill="#EA4335"/>
</svg>
