<svg width="75" height="75" viewBox="0 0 75 75" fill="none" xmlns="http://www.w3.org/2000/svg">
<g clip-path="url(#clip0_35_13288)">
<circle cx="37.5" cy="37.5" r="37.5" fill="white"/>
<path d="M37.5308 0C16.8039 0 0 16.7763 0 37.4691C0 53.3511 9.88465 66.9202 23.8467 72.3787C23.5069 69.4181 23.2289 64.854 23.9703 61.6159C24.6499 58.6862 28.3566 42.9893 28.3566 42.9893C28.3566 42.9893 27.2446 40.7381 27.2446 37.4383C27.2446 32.2266 30.2718 28.3409 34.0403 28.3409C37.2528 28.3409 38.7973 30.7463 38.7973 33.6143C38.7973 36.8215 36.7586 41.6324 35.6774 46.104C34.7816 49.8355 37.5617 52.8885 41.2375 52.8885C47.9097 52.8885 53.0374 45.8573 53.0374 35.7422C53.0374 26.7681 46.5814 20.5078 37.3455 20.5078C26.6577 20.5078 20.3871 28.4951 20.3871 36.7599C20.3871 39.9671 21.6227 43.421 23.1672 45.3022C23.4761 45.6723 23.5069 46.0115 23.4143 46.3816C23.1363 47.5534 22.4876 50.1131 22.364 50.6373C22.2096 51.3158 21.808 51.47 21.0976 51.1307C16.4024 48.9412 13.4678 42.1258 13.4678 36.6057C13.4678 24.7944 22.0551 13.9391 38.2722 13.9391C51.2767 13.9391 61.4084 23.1908 61.4084 35.588C61.4084 48.5094 53.2536 58.9021 41.948 58.9021C38.1486 58.9021 34.5654 56.9284 33.3607 54.5847C33.3607 54.5847 31.4765 61.7393 31.0131 63.4971C30.1791 66.766 27.8933 70.8367 26.3488 73.3347C29.8702 74.414 33.5769 75 37.469 75C58.1959 75 74.9998 58.2237 74.9998 37.5308C75.0616 16.7763 58.2577 0 37.5308 0Z" fill="#E60023"/>
</g>
<defs>
<clipPath id="clip0_35_13288">
<rect width="75" height="75" fill="white"/>
</clipPath>
</defs>
</svg>
