<svg width="720" height="29" viewBox="0 0 720 29" fill="none" xmlns="http://www.w3.org/2000/svg">
<path fill-rule="evenodd" clip-rule="evenodd" d="M360 20.6304C365.697 20.6304 370.315 16.0121 370.315 10.3152C370.315 4.61827 365.697 0 360 0C354.303 0 349.685 4.61827 349.685 10.3152C349.685 16.0121 354.303 20.6304 360 20.6304ZM342.606 9.28367L342.607 9.3639H10.3146C10.315 9.3372 10.3152 9.31046 10.3152 9.28367C10.3152 6.43521 8.00605 4.12607 5.15759 4.12607C2.30913 4.12607 0 6.43521 0 9.28367C0 9.31046 0.000204273 9.3372 0.000611346 9.3639H0V10.3639H0.113304C0.609822 12.6938 2.67963 14.4413 5.15759 14.4413C7.63555 14.4413 9.70537 12.6938 10.2019 10.3639H342.635C343.159 20.3655 350.913 28.351 360.47 28.351C370.028 28.351 377.782 20.3655 378.306 10.3639H709.798C710.295 12.6938 712.364 14.4413 714.842 14.4413C717.32 14.4413 719.39 12.6938 719.887 10.3639H720V9.3639H719.999C720 9.3372 720 9.31046 720 9.28367C720 6.43521 717.691 4.12607 714.842 4.12607C711.994 4.12607 709.685 6.43521 709.685 9.28367C709.685 9.31046 709.685 9.3372 709.685 9.3639H378.334L378.334 9.28367H377.334C377.334 19.2962 369.755 27.351 360.47 27.351C351.186 27.351 343.606 19.2962 343.606 9.28367H342.606Z" fill="url(#paint0_linear_35_13216)"/>
<defs>
<linearGradient id="paint0_linear_35_13216" x1="0" y1="14.1755" x2="720" y2="14.1755" gradientUnits="userSpaceOnUse">
<stop offset="0.253125" stop-color="#590DA6"/>
<stop offset="1" stop-color="#D43F8D"/>
</linearGradient>
</defs>
</svg>
