<svg width="580" height="29" viewBox="0 0 580 29" fill="none" xmlns="http://www.w3.org/2000/svg">
<path fill-rule="evenodd" clip-rule="evenodd" d="M291.028 20.5674C296.708 20.5674 301.312 15.9632 301.312 10.2837C301.312 4.60416 296.708 0 291.028 0C285.349 0 280.745 4.60416 280.745 10.2837C280.745 15.9632 285.349 20.5674 291.028 20.5674ZM273.93 9.25532L273.93 9.33378H10.2831C10.2835 9.30767 10.2837 9.28152 10.2837 9.25532C10.2837 6.41556 7.98161 4.11348 5.14184 4.11348C2.30208 4.11348 0 6.41556 0 9.25532C0 9.28152 0.000195939 9.30767 0.000586432 9.33378H0V10.3338H0.113284C0.608864 12.6558 2.67199 14.3972 5.14184 14.3972C7.6117 14.3972 9.67482 12.6558 10.1704 10.3338H273.958C274.481 20.3053 282.22 28.266 291.756 28.266C301.292 28.266 309.03 20.3053 309.554 10.3338H569.83C570.325 12.6558 572.388 14.3972 574.858 14.3972C577.328 14.3972 579.391 12.6558 579.887 10.3338H580V9.33378H579.999C580 9.30767 580 9.28152 580 9.25532C580 6.41556 577.698 4.11348 574.858 4.11348C572.018 4.11348 569.716 6.41556 569.716 9.25532C569.716 9.28152 569.717 9.30767 569.717 9.33378H309.582L309.582 9.25532H308.582C308.582 19.2361 301.02 27.266 291.756 27.266C282.492 27.266 274.93 19.2361 274.93 9.25532H273.93Z" fill="url(#paint0_linear_35_13188)"/>
<defs>
<linearGradient id="paint0_linear_35_13188" x1="0" y1="14.133" x2="580" y2="14.133" gradientUnits="userSpaceOnUse">
<stop offset="0.253125" stop-color="#590DA6"/>
<stop offset="1" stop-color="#D43F8D"/>
</linearGradient>
</defs>
</svg>
