<svg width="293" height="15" viewBox="0 0 293 15" fill="none" xmlns="http://www.w3.org/2000/svg">
<path fill-rule="evenodd" clip-rule="evenodd" d="M147 10C149.761 10 152 7.76142 152 5C152 2.23858 149.761 0 147 0C144.239 0 142 2.23858 142 5C142 7.76142 144.239 10 147 10ZM138.374 5L138.374 5.02127H4.94558C4.98124 4.85314 5 4.67876 5 4.5C5 3.11929 3.88071 2 2.5 2C1.11929 2 0 3.11929 0 4.5C0 4.67876 0.0187616 4.85314 0.054423 5.02127H0V5.54123H0.226485C0.621395 6.4021 1.49087 7 2.5 7C3.50913 7 4.37861 6.4021 4.77352 5.54123H138.389C138.662 10.3984 142.579 14.26 147.387 14.26C152.195 14.26 156.112 10.3984 156.385 5.54123H288.226C288.621 6.4021 289.491 7 290.5 7C291.509 7 292.379 6.4021 292.774 5.54123H293V5.02127H292.946C292.981 4.85314 293 4.67876 293 4.5C293 3.11929 291.881 2 290.5 2C289.119 2 288 3.11929 288 4.5C288 4.67876 288.019 4.85314 288.054 5.02127H156.4L156.4 5H155.88C155.88 9.83489 152.072 13.74 147.387 13.74C142.702 13.74 138.894 9.83489 138.894 5H138.374Z" fill="url(#paint0_linear_35_17597)"/>
<defs>
<linearGradient id="paint0_linear_35_17597" x1="0" y1="7.12999" x2="293" y2="7.12999" gradientUnits="userSpaceOnUse">
<stop offset="0.253125" stop-color="#590DA6"/>
<stop offset="1" stop-color="#D43F8D"/>
</linearGradient>
</defs>
</svg>
