<svg width="21" height="20" viewBox="0 0 21 20" fill="none" xmlns="http://www.w3.org/2000/svg">
<g clip-path="url(#clip0_134_1854)">
<path d="M10.5078 20.0156C16.035 20.0156 20.5156 15.535 20.5156 10.0078C20.5156 4.48064 16.035 0 10.5078 0C4.98064 0 0.5 4.48064 0.5 10.0078C0.5 15.535 4.98064 20.0156 10.5078 20.0156Z" fill="url(#paint0_linear_134_1854)"/>
<path fill-rule="evenodd" clip-rule="evenodd" d="M5.02082 9.89862C7.93586 8.62036 9.88442 7.79418 10.8665 7.38888C13.6412 6.23533 14.218 6.03268 14.5921 6.01709C14.6701 6.01709 14.8571 6.03268 14.9819 6.12621C15.0754 6.20415 15.1066 6.31327 15.1221 6.39121C15.1377 6.46916 15.1533 6.64063 15.1377 6.78093C14.9819 8.35536 14.3427 12.2057 13.9998 13.9672C13.8595 14.7155 13.5789 14.9649 13.3139 14.996C12.7371 15.0428 12.285 14.6063 11.7239 14.2478C10.8509 13.671 10.3521 13.3125 9.49471 12.7513C8.51264 12.0966 9.15176 11.7381 9.71295 11.1613C9.85324 11.0054 12.4253 8.68272 12.4721 8.46448C12.4721 8.4333 12.4877 8.33977 12.4253 8.29301C12.363 8.24624 12.285 8.26183 12.2227 8.27742C12.1292 8.29301 10.7262 9.22831 7.99822 11.0678C7.59292 11.3483 7.23438 11.4731 6.90702 11.4731C6.54849 11.4731 5.8626 11.2704 5.34818 11.0989C4.72464 10.8963 4.22581 10.7872 4.27257 10.4442C4.30375 10.2727 4.55316 10.0857 5.02082 9.89862Z" fill="white"/>
</g>
<defs>
<linearGradient id="paint0_linear_134_1854" x1="0.5" y1="10.0006" x2="20.5011" y2="10.0006" gradientUnits="userSpaceOnUse">
<stop stop-color="#2AABEE"/>
<stop offset="1" stop-color="#229ED9"/>
</linearGradient>
<clipPath id="clip0_134_1854">
<rect width="20" height="20" fill="white" transform="translate(0.5)"/>
</clipPath>
</defs>
</svg>
