<svg width="158" height="27" viewBox="0 0 158 27" fill="none" xmlns="http://www.w3.org/2000/svg">
<path fill-rule="evenodd" clip-rule="evenodd" d="M79 20C84.5229 20 89 15.5228 89 10C89 4.47715 84.5229 0 79 0C73.4771 0 69 4.47715 69 10C69 15.5228 73.4771 20 79 20ZM63.1226 9L63.1226 9.03125H9.9999L10 9C10 6.23858 7.76142 4 5 4C2.23858 4 0 6.23858 0 9C0 11.7614 2.23858 14 5 14C7.40791 14 9.41826 12.2979 9.89353 10.0312H63.1521C63.6805 19.2139 71.2196 26.5 80.456 26.5C89.6923 26.5 97.2314 19.2139 97.7598 10.0312H147.106C147.582 12.2979 149.592 14 152 14C154.408 14 156.418 12.2979 156.894 10.0312H158V9.03125H157C157 9.02084 157 9.01042 157 9C157 6.23858 154.761 4 152 4C149.239 4 147 6.23858 147 9C147 9.01042 147 9.02084 147 9.03125H97.7893L97.7894 9H96.7894C96.7894 18.1193 89.474 25.5 80.456 25.5C71.438 25.5 64.1226 18.1193 64.1226 9H63.1226Z" fill="url(#paint0_linear_35_13207)"/>
<defs>
<linearGradient id="paint0_linear_35_13207" x1="0" y1="13.25" x2="158" y2="13.25" gradientUnits="userSpaceOnUse">
<stop offset="0.253125" stop-color="#590DA6"/>
<stop offset="1" stop-color="#D43F8D"/>
</linearGradient>
</defs>
</svg>
