<svg width="75" height="75" viewBox="0 0 75 75" fill="none" xmlns="http://www.w3.org/2000/svg">
<g clip-path="url(#clip0_35_13253)">
<path d="M37.5 75C58.2107 75 75 58.2107 75 37.5C75 16.7893 58.2107 0 37.5 0C16.7893 0 0 16.7893 0 37.5C0 58.2107 16.7893 75 37.5 75Z" fill="black"/>
<path d="M32 31.2094V29.1566C31.2999 29.0604 30.5885 29 29.8621 29C21.1155 29 14 36.1528 14 44.9453C14 50.3396 16.6822 55.1132 20.7721 58C18.1312 55.1509 16.5114 51.334 16.5114 47.1434C16.5114 38.4774 23.4261 31.4094 32 31.2075V31.2094Z" fill="#25F4EE"/>
<path d="M31.7428 53.9981C35.5597 53.9981 38.6734 50.9432 38.8148 47.1384L38.8276 13.1518H45C44.8715 12.4536 44.8017 11.7351 44.8017 11H36.3711L36.3583 44.9866C36.2169 48.7933 33.1032 51.8464 29.2863 51.8464C28.1003 51.8464 26.9822 51.5472 26 51.0282C27.2888 52.8235 29.3799 54 31.7446 54L31.7428 53.9981Z" fill="#25F4EE"/>
<path d="M57 25V23.0107C54.789 23.0107 52.7281 22.2698 51 21C52.5384 22.9912 54.6286 24.4283 57 25Z" fill="#25F4EE"/>
<path d="M51 21C49.256 18.8567 48.1956 16.0583 48.1956 13H46C46.5784 16.341 48.4313 19.2082 51 21Z" fill="#FE2C55"/>
<path d="M30.3095 37.4038C26.2798 37.4038 23 40.6384 23 44.6167C23 47.3861 24.5926 49.7929 26.9179 51C26.0507 49.8153 25.5337 48.3634 25.5337 46.7937C25.5337 42.8172 28.8135 39.5808 32.8431 39.5808C33.5949 39.5808 34.3164 39.7041 35 39.9134V31.1551C34.2937 31.0598 33.576 31 32.8431 31C32.7163 31 32.5913 31.0075 32.4644 31.0093V37.7364C31.7827 37.5253 31.0593 37.4038 30.3076 37.4038H30.3095Z" fill="#FE2C55"/>
<path d="M57.5158 25V31.628C53.0983 31.628 49.0056 30.2129 45.6642 27.8135V45.1421C45.6642 53.7962 38.6308 60.8365 29.9852 60.8365C26.6438 60.8365 23.5455 59.7816 21 57.9914C23.8646 61.0686 27.9443 63 32.4694 63C41.115 63 48.1484 55.9597 48.1484 47.3056V29.977C51.4898 32.3783 55.5826 33.7915 60 33.7915V25.2637C59.1484 25.2637 58.3173 25.1709 57.5176 25H57.5158Z" fill="#FE2C55"/>
<path d="M45.0691 45.1209V27.5842C48.4328 30.0143 52.553 31.4445 57 31.4445V24.7369C54.4319 24.1843 52.1682 22.7955 50.5022 20.8709C47.8146 19.1081 45.8759 16.2871 45.2708 13H38.9915L38.9785 47.5829C38.8346 51.4564 35.667 54.563 31.784 54.563C29.3784 54.563 27.2511 53.3677 25.94 51.5391C23.6445 50.3231 22.0757 47.9043 22.0757 45.119C22.0757 41.1197 25.3105 37.8645 29.285 37.8645C30.0265 37.8645 30.7381 37.9886 31.4124 38.1991V31.4332C22.8806 31.6343 16 38.6745 16 47.3067C16 51.4827 17.6118 55.2828 20.2397 58.1208C22.8041 59.9325 25.9213 61 29.285 61C37.9886 61 45.0691 53.8752 45.0691 45.1171V45.1209Z" fill="white"/>
</g>
<defs>
<clipPath id="clip0_35_13253">
<rect width="75" height="75" fill="white"/>
</clipPath>
</defs>
</svg>
