<svg width="18" height="21" viewBox="0 0 18 21" fill="none" xmlns="http://www.w3.org/2000/svg">
<path d="M14.2806 3.29C13.4959 2.37956 13.0634 1.21034 13.0638 0H9.51658V14.4667C9.48922 15.2495 9.16401 15.9911 8.60942 16.5351C8.05484 17.0791 7.31416 17.3832 6.54337 17.3833C4.91326 17.3833 3.55867 16.03 3.55867 14.35C3.55867 12.3433 5.46429 10.8383 7.4273 11.4567V7.77C3.46684 7.23333 0 10.36 0 14.35C0 18.235 3.16837 21 6.53189 21C10.1365 21 13.0638 18.025 13.0638 14.35V7.01167C14.5022 8.06149 16.2291 8.62475 18 8.62167V5.01667C18 5.01667 15.8418 5.12167 14.2806 3.29Z" fill="white"/>
</svg>
