<svg width="23" height="16" viewBox="0 0 23 16" fill="none" xmlns="http://www.w3.org/2000/svg">
<path d="M9.2 11.4286L15.1685 8L9.2 4.57143V11.4286ZM22.494 2.48C22.6435 3.01714 22.747 3.73714 22.816 4.65143C22.8965 5.56571 22.931 6.35429 22.931 7.04L23 8C23 10.5029 22.816 12.3429 22.494 13.52C22.2065 14.5486 21.5395 15.2114 20.5045 15.4971C19.964 15.6457 18.975 15.7486 17.457 15.8171C15.962 15.8971 14.5935 15.9314 13.3285 15.9314L11.5 16C6.6815 16 3.68 15.8171 2.4955 15.4971C1.4605 15.2114 0.7935 14.5486 0.506 13.52C0.3565 12.9829 0.253 12.2629 0.184 11.3486C0.1035 10.4343 0.0689999 9.64571 0.0689999 8.96L0 8C0 5.49714 0.184 3.65714 0.506 2.48C0.7935 1.45143 1.4605 0.788572 2.4955 0.502857C3.036 0.354286 4.025 0.251428 5.543 0.182857C7.038 0.102857 8.4065 0.0685714 9.6715 0.0685714L11.5 0C16.3185 0 19.32 0.182857 20.5045 0.502857C21.5395 0.788572 22.2065 1.45143 22.494 2.48Z" fill="white"/>
</svg>
