<svg width="250" height="27" viewBox="0 0 250 27" fill="none" xmlns="http://www.w3.org/2000/svg">
<path fill-rule="evenodd" clip-rule="evenodd" d="M124.5 21C130.851 21 136 16.299 136 10.5C136 4.70101 130.851 0 124.5 0C118.149 0 113 4.70101 113 10.5C113 16.299 118.149 21 124.5 21ZM107.293 10H11.9755C11.7 7.19675 9.12984 5 6 5C2.68629 5 0 7.46243 0 10.5C0 13.5376 2.68629 16 6 16C9.12984 16 11.7 13.8033 11.9755 11H107.324C107.862 19.6654 115.345 26.5 124.462 26.5C133.579 26.5 141.063 19.6654 141.601 11H238.024C238.3 13.8033 240.87 16 244 16C247.314 16 250 13.5376 250 10.5C250 7.46243 247.314 5 244 5C240.87 5 238.3 7.19675 238.024 10H141.632H141.124H140.632C140.632 18.5431 133.414 25.5 124.462 25.5C115.511 25.5 108.293 18.5431 108.293 10H107.801H107.293Z" fill="url(#paint0_linear_35_12629)"/>
<defs>
<linearGradient id="paint0_linear_35_12629" x1="0" y1="13.25" x2="250" y2="13.25" gradientUnits="userSpaceOnUse">
<stop offset="0.253125" stop-color="#590DA6"/>
<stop offset="1" stop-color="#D43F8D"/>
</linearGradient>
</defs>
</svg>
