<svg width="94" height="27" viewBox="0 0 94 27" fill="none" xmlns="http://www.w3.org/2000/svg">
<path fill-rule="evenodd" clip-rule="evenodd" d="M46.125 20C51.6478 20 56.125 15.5228 56.125 10C56.125 4.47715 51.6478 0 46.125 0C40.6022 0 36.125 4.47715 36.125 10C36.125 15.5228 40.6022 20 46.125 20ZM29.9976 9L29.9976 9.03125H10.1249L10.125 9C10.125 6.23858 7.88642 4 5.125 4C2.36358 4 0.125 6.23858 0.125 9C0.125 11.7614 2.36358 14 5.125 14C7.53291 14 9.54326 12.2979 10.0185 10.0312H30.0271C30.5555 19.2139 38.0946 26.5 47.331 26.5C56.5673 26.5 64.1064 19.2139 64.6348 10.0312H83.1065C83.5817 12.2979 85.5921 14 88 14C90.4079 14 92.4183 12.2979 92.8935 10.0312H93.875V9.03125H92.9999C93 9.02084 93 9.01042 93 9C93 6.23858 90.7614 4 88 4C85.2386 4 83 6.23858 83 9C83 9.01042 83 9.02084 83.0001 9.03125H64.6643L64.6644 9H63.6644C63.6644 18.1193 56.349 25.5 47.331 25.5C38.313 25.5 30.9976 18.1193 30.9976 9H29.9976Z" fill="url(#paint0_linear_35_12444)"/>
<defs>
<linearGradient id="paint0_linear_35_12444" x1="0.125" y1="13.25" x2="93.875" y2="13.25" gradientUnits="userSpaceOnUse">
<stop offset="0.253125" stop-color="#590DA6"/>
<stop offset="1" stop-color="#D43F8D"/>
</linearGradient>
</defs>
</svg>
