<svg width="62" height="62" viewBox="0 0 62 62" fill="none" xmlns="http://www.w3.org/2000/svg">
<g filter="url(#filter0_i_63_2957)">
<circle cx="31" cy="31" r="30.5" transform="rotate(-180 31 31)" stroke="white"/>
</g>
<path d="M24.4321 30.2305L36.2748 18.9468C36.4724 18.7584 36.7349 18.6533 37.0079 18.6533C37.2809 18.6533 37.5434 18.7584 37.741 18.9468L37.7538 18.9595C37.8499 19.0508 37.9264 19.1608 37.9787 19.2826C38.031 19.4044 38.058 19.5356 38.058 19.6682C38.058 19.8008 38.031 19.932 37.9787 20.0538C37.9264 20.1757 37.8499 20.2856 37.7538 20.3769L26.6018 31.0019L37.7538 41.6226C37.8499 41.714 37.9264 41.8239 37.9787 41.9457C38.031 42.0676 38.058 42.1987 38.058 42.3313C38.058 42.4639 38.031 42.5951 37.9787 42.717C37.9264 42.8388 37.8499 42.9487 37.7538 43.04L37.741 43.0528C37.5434 43.2411 37.2809 43.3462 37.0079 43.3462C36.7349 43.3462 36.4724 43.2411 36.2748 43.0528L24.4321 31.769C24.328 31.6698 24.2451 31.5504 24.1884 31.4182C24.1318 31.286 24.1025 31.1436 24.1025 30.9998C24.1025 30.8559 24.1318 30.7136 24.1884 30.5813C24.2451 30.4491 24.328 30.3298 24.4321 30.2305Z" fill="white"/>
<defs>
<filter id="filter0_i_63_2957" x="-4" y="0" width="66" height="66" filterUnits="userSpaceOnUse" color-interpolation-filters="sRGB">
<feFlood flood-opacity="0" result="BackgroundImageFix"/>
<feBlend mode="normal" in="SourceGraphic" in2="BackgroundImageFix" result="shape"/>
<feColorMatrix in="SourceAlpha" type="matrix" values="0 0 0 0 0 0 0 0 0 0 0 0 0 0 0 0 0 0 127 0" result="hardAlpha"/>
<feOffset dx="-4" dy="4"/>
<feGaussianBlur stdDeviation="3.5"/>
<feComposite in2="hardAlpha" operator="arithmetic" k2="-1" k3="1"/>
<feColorMatrix type="matrix" values="0 0 0 0 0 0 0 0 0 0 0 0 0 0 0 0 0 0 0.28 0"/>
<feBlend mode="normal" in2="shape" result="effect1_innerShadow_63_2957"/>
</filter>
</defs>
</svg>
