<svg width="195" height="27" viewBox="0 0 195 27" fill="none" xmlns="http://www.w3.org/2000/svg">
<path fill-rule="evenodd" clip-rule="evenodd" d="M98.125 20C103.648 20 108.125 15.5228 108.125 10C108.125 4.47715 103.648 0 98.125 0C92.6021 0 88.125 4.47715 88.125 10C88.125 15.5228 92.6021 20 98.125 20ZM81.4976 9L81.4976 9.03125H10.1249L10.125 9C10.125 6.23858 7.88642 4 5.125 4C2.36358 4 0.125 6.23858 0.125 9C0.125 11.7614 2.36358 14 5.125 14C7.53291 14 9.54326 12.2979 10.0185 10.0312H81.5271C82.0555 19.2139 89.5946 26.5 98.831 26.5C108.067 26.5 115.606 19.2139 116.135 10.0312H184.106C184.582 12.2979 186.592 14 189 14C191.408 14 193.418 12.2979 193.894 10.0312H194.875V9.03125H194C194 9.02084 194 9.01042 194 9C194 6.23858 191.761 4 189 4C186.239 4 184 6.23858 184 9C184 9.01042 184 9.02084 184 9.03125H116.164L116.164 9H115.164C115.164 18.1193 107.849 25.5 98.831 25.5C89.813 25.5 82.4976 18.1193 82.4976 9H81.4976Z" fill="url(#paint0_linear_35_12427)"/>
<defs>
<linearGradient id="paint0_linear_35_12427" x1="0.125" y1="13.25" x2="194.875" y2="13.25" gradientUnits="userSpaceOnUse">
<stop offset="0.253125" stop-color="#590DA6"/>
<stop offset="1" stop-color="#D43F8D"/>
</linearGradient>
</defs>
</svg>
