<svg width="85" height="85" viewBox="0 0 85 85" fill="none" xmlns="http://www.w3.org/2000/svg">
<circle cx="42.5" cy="42.5" r="42.5" fill="url(#paint0_linear_35_12439)"/>
<circle cx="42.5" cy="42.5" r="42.5" fill="url(#paint1_radial_35_12439)"/>
<g filter="url(#filter0_ii_35_12439)">
<path d="M69.5834 42.4998C69.5834 27.5498 57.4501 15.4165 42.5001 15.4165C27.5501 15.4165 15.4167 27.5498 15.4167 42.4998C15.4167 55.6082 24.7334 66.5227 37.0834 69.0415V50.6248H31.6667V42.4998H37.0834V35.729C37.0834 30.5019 41.3355 26.2498 46.5626 26.2498H53.3334V34.3748H47.9167C46.4272 34.3748 45.2084 35.5936 45.2084 37.0832V42.4998H53.3334V50.6248H45.2084V69.4478C58.8855 68.0936 69.5834 56.5561 69.5834 42.4998Z" fill="url(#paint2_linear_35_12439)"/>
</g>
<defs>
<filter id="filter0_ii_35_12439" x="15.4167" y="15.4165" width="54.1667" height="58.0312" filterUnits="userSpaceOnUse" color-interpolation-filters="sRGB">
<feFlood flood-opacity="0" result="BackgroundImageFix"/>
<feBlend mode="normal" in="SourceGraphic" in2="BackgroundImageFix" result="shape"/>
<feColorMatrix in="SourceAlpha" type="matrix" values="0 0 0 0 0 0 0 0 0 0 0 0 0 0 0 0 0 0 127 0" result="hardAlpha"/>
<feOffset dy="4"/>
<feGaussianBlur stdDeviation="25"/>
<feComposite in2="hardAlpha" operator="arithmetic" k2="-1" k3="1"/>
<feColorMatrix type="matrix" values="0 0 0 0 0 0 0 0 0 0 0 0 0 0 0 0 0 0 0.64 0"/>
<feBlend mode="normal" in2="shape" result="effect1_innerShadow_35_12439"/>
<feColorMatrix in="SourceAlpha" type="matrix" values="0 0 0 0 0 0 0 0 0 0 0 0 0 0 0 0 0 0 127 0" result="hardAlpha"/>
<feOffset/>
<feGaussianBlur stdDeviation="12"/>
<feComposite in2="hardAlpha" operator="arithmetic" k2="-1" k3="1"/>
<feColorMatrix type="matrix" values="0 0 0 0 0.0646875 0 0 0 0 0.0335417 0 0 0 0 0.0958333 0 0 0 1 0"/>
<feBlend mode="normal" in2="effect1_innerShadow_35_12439" result="effect2_innerShadow_35_12439"/>
</filter>
<linearGradient id="paint0_linear_35_12439" x1="0" y1="42.5" x2="85" y2="42.5" gradientUnits="userSpaceOnUse">
<stop offset="0.253125" stop-color="#4B0D89"/>
</linearGradient>
<radialGradient id="paint1_radial_35_12439" cx="0" cy="0" r="1" gradientUnits="userSpaceOnUse" gradientTransform="translate(42.5 30) rotate(82.875) scale(55.428)">
<stop stop-color="#63005F" stop-opacity="0"/>
<stop offset="0.52133" stop-color="#FF00F5" stop-opacity="0"/>
<stop offset="0.74133" stop-color="#FF00F5" stop-opacity="0.2"/>
<stop offset="0.854014" stop-color="#FF00F5" stop-opacity="0.4"/>
<stop offset="0.934452" stop-color="#FF00F5" stop-opacity="0.8"/>
</radialGradient>
<linearGradient id="paint2_linear_35_12439" x1="64.9544" y1="34.818" x2="15.909" y2="54.9089" gradientUnits="userSpaceOnUse">
<stop offset="0.253125" stop-color="#590DA6"/>
<stop offset="1" stop-color="#D43F8D"/>
</linearGradient>
</defs>
</svg>
