<svg width="172" height="172" viewBox="0 0 172 172" fill="none" xmlns="http://www.w3.org/2000/svg">
<circle cx="86" cy="86" r="86" fill="url(#paint0_linear_35_12435)"/>
<g filter="url(#filter0_ii_35_12435)">
<path d="M90.4296 42.9213C93.5735 42.9093 96.7175 42.9409 99.8605 43.0161L100.696 43.0463C101.661 43.0807 102.614 43.1238 103.764 43.1755C108.348 43.3909 111.476 44.1147 114.22 45.1789C117.064 46.2732 119.459 47.7553 121.855 50.1507C124.045 52.3032 125.74 54.9069 126.822 57.7808C127.886 60.5252 128.61 63.6573 128.825 68.2414C128.877 69.3874 128.92 70.3439 128.955 71.3089L128.981 72.1448C129.057 75.2864 129.09 78.4289 129.08 81.5714L129.084 84.7854V90.4293C129.095 93.5733 129.062 96.7172 128.985 99.8603L128.959 100.696C128.925 101.661 128.881 102.613 128.83 103.764C128.614 108.348 127.882 111.476 126.822 114.22C125.743 117.097 124.048 119.703 121.855 121.854C119.7 124.044 117.095 125.739 114.22 126.822C111.476 127.886 108.348 128.61 103.764 128.825C102.614 128.877 101.661 128.92 100.696 128.954L99.8605 128.98C96.7175 129.057 93.5735 129.09 90.4296 129.079L87.2156 129.084H81.5759C78.432 129.094 75.288 129.061 72.145 128.985L71.3092 128.959C70.2864 128.922 69.2639 128.879 68.2417 128.83C63.6576 128.614 60.5297 127.882 57.781 126.822C54.906 125.742 52.3019 124.046 50.151 121.854C47.9582 119.701 46.2615 117.096 45.1792 114.22C44.115 111.476 43.3912 108.348 43.1758 103.764C43.1278 102.741 43.0847 101.719 43.0465 100.696L43.025 99.8603C42.9456 96.7173 42.9097 93.5733 42.9173 90.4293V81.5714C42.9053 78.4289 42.9369 75.2864 43.0121 72.1448L43.0422 71.3089C43.0767 70.3439 43.1198 69.3874 43.1715 68.2414C43.3869 63.653 44.1107 60.5295 45.1748 57.7808C46.2578 54.9055 47.9579 52.3025 50.1553 50.155C52.3047 47.961 54.9072 46.2627 57.781 45.1789C60.5297 44.1147 63.6533 43.3909 68.2417 43.1755L71.3092 43.0463L72.145 43.0247C75.2866 42.9453 78.4291 42.9094 81.5716 42.917L90.4296 42.9213ZM86.0006 64.463C83.1464 64.4226 80.3126 64.9499 77.6639 66.0143C75.0152 67.0786 72.6045 68.6588 70.5718 70.6629C68.5391 72.6671 66.925 75.0552 65.8233 77.6886C64.7216 80.3219 64.1543 83.148 64.1543 86.0025C64.1543 88.857 64.7216 91.6831 65.8233 94.3165C66.925 96.9498 68.5391 99.338 70.5718 101.342C72.6045 103.346 75.0152 104.926 77.6639 105.991C80.3126 107.055 83.1464 107.582 86.0006 107.542C91.7138 107.542 97.193 105.272 101.233 101.233C105.273 97.1928 107.542 91.7136 107.542 86.0004C107.542 80.2871 105.273 74.8079 101.233 70.7681C97.193 66.7282 91.7138 64.463 86.0006 64.463ZM86.0006 73.0797C87.7175 73.048 89.4235 73.3588 91.0189 73.9939C92.6144 74.629 94.0673 75.5757 95.2927 76.7786C96.5182 77.9815 97.4917 79.4165 98.1563 80.9998C98.821 82.5832 99.1634 84.2831 99.1637 86.0003C99.164 87.7175 98.8221 89.4175 98.158 91.0011C97.4939 92.5847 96.5209 94.0201 95.2958 95.2234C94.0707 96.4267 92.6182 97.3738 91.0229 98.0094C89.4277 98.645 87.7218 98.9564 86.0049 98.9254C82.577 98.9254 79.2895 97.5636 76.8656 95.1397C74.4417 92.7158 73.0799 89.4283 73.0799 86.0004C73.0799 82.5724 74.4417 79.2849 76.8656 76.861C79.2895 74.4371 82.577 73.0753 86.0049 73.0753L86.0006 73.0797ZM108.619 58.0005C107.229 58.0561 105.915 58.6474 104.951 59.6505C103.988 60.6535 103.449 61.9906 103.449 63.3816C103.449 64.7726 103.988 66.1097 104.951 67.1127C105.915 68.1158 107.229 68.7071 108.619 68.7627C110.048 68.7627 111.417 68.1953 112.427 67.1854C113.437 66.1754 114.005 64.8056 114.005 63.3773C114.005 61.949 113.437 60.5792 112.427 59.5692C111.417 58.5593 110.048 57.9919 108.619 57.9919V58.0005Z" fill="url(#paint1_linear_35_12435)"/>
</g>
<defs>
<filter id="filter0_ii_35_12435" x="42.9148" y="42.916" width="86.1711" height="89.1694" filterUnits="userSpaceOnUse" color-interpolation-filters="sRGB">
<feFlood flood-opacity="0" result="BackgroundImageFix"/>
<feBlend mode="normal" in="SourceGraphic" in2="BackgroundImageFix" result="shape"/>
<feColorMatrix in="SourceAlpha" type="matrix" values="0 0 0 0 0 0 0 0 0 0 0 0 0 0 0 0 0 0 127 0" result="hardAlpha"/>
<feOffset dy="1"/>
<feGaussianBlur stdDeviation="2"/>
<feComposite in2="hardAlpha" operator="arithmetic" k2="-1" k3="1"/>
<feColorMatrix type="matrix" values="0 0 0 0 0 0 0 0 0 0 0 0 0 0 0 0 0 0 0.6 0"/>
<feBlend mode="normal" in2="shape" result="effect1_innerShadow_35_12435"/>
<feColorMatrix in="SourceAlpha" type="matrix" values="0 0 0 0 0 0 0 0 0 0 0 0 0 0 0 0 0 0 127 0" result="hardAlpha"/>
<feOffset dy="3"/>
<feGaussianBlur stdDeviation="18.5"/>
<feComposite in2="hardAlpha" operator="arithmetic" k2="-1" k3="1"/>
<feColorMatrix type="matrix" values="0 0 0 0 0 0 0 0 0 0 0 0 0 0 0 0 0 0 1 0"/>
<feBlend mode="normal" in2="effect1_innerShadow_35_12435" result="effect2_innerShadow_35_12435"/>
</filter>
<linearGradient id="paint0_linear_35_12435" x1="0" y1="86" x2="172" y2="86" gradientUnits="userSpaceOnUse">
<stop offset="0.253125" stop-color="#590DA6"/>
<stop offset="1" stop-color="#D43F8D"/>
</linearGradient>
<linearGradient id="paint1_linear_35_12435" x1="42.9148" y1="86.0008" x2="129.086" y2="86.0008" gradientUnits="userSpaceOnUse">
<stop offset="0.253125" stop-color="#590DA6"/>
<stop offset="1" stop-color="#D43F8D"/>
</linearGradient>
</defs>
</svg>
