<svg width="270" height="296" viewBox="0 0 270 296" fill="none" xmlns="http://www.w3.org/2000/svg">
<g filter="url(#filter0_d_35_16730)">
<circle cx="134" cy="156.5" r="120.5" fill="url(#paint0_linear_35_16730)"/>
</g>
<g filter="url(#filter1_ii_35_16730)">
<path d="M133.999 89.2656C96.8847 89.2656 66.7632 119.387 66.7632 156.501C66.7632 193.615 96.8847 223.737 133.999 223.737C171.113 223.737 201.234 193.615 201.234 156.501C201.234 119.387 171.113 89.2656 133.999 89.2656ZM165.196 134.986C164.187 145.609 159.817 171.427 157.598 183.328C156.657 188.371 154.774 190.052 153.026 190.253C149.127 190.59 146.168 187.698 142.403 185.211C136.486 181.311 133.125 178.891 127.41 175.125C120.753 170.755 125.056 168.335 128.889 164.435C129.897 163.426 147.11 147.761 147.446 146.349C147.492 146.135 147.486 145.913 147.428 145.702C147.369 145.491 147.26 145.297 147.11 145.138C146.706 144.802 146.168 144.937 145.698 145.004C145.093 145.138 135.68 151.391 117.324 163.763C114.635 165.578 112.214 166.519 110.063 166.452C107.642 166.385 103.07 165.107 99.6413 163.964C95.4055 162.62 92.111 161.88 92.3799 159.527C92.5144 158.316 94.1953 157.106 97.3553 155.829C116.988 147.29 130.032 141.642 136.554 138.953C155.245 131.153 159.078 129.809 161.632 129.809C162.17 129.809 163.448 129.943 164.255 130.615C164.927 131.153 165.129 131.893 165.196 132.431C165.129 132.834 165.263 134.044 165.196 134.986Z" fill="#D43F8D"/>
</g>
<defs>
<filter id="filter0_d_35_16730" x="-21.7759" y="0.72414" width="311.552" height="311.552" filterUnits="userSpaceOnUse" color-interpolation-filters="sRGB">
<feFlood flood-opacity="0" result="BackgroundImageFix"/>
<feColorMatrix in="SourceAlpha" type="matrix" values="0 0 0 0 0 0 0 0 0 0 0 0 0 0 0 0 0 0 127 0" result="hardAlpha"/>
<feOffset/>
<feGaussianBlur stdDeviation="17.6379"/>
<feComposite in2="hardAlpha" operator="out"/>
<feColorMatrix type="matrix" values="0 0 0 0 0.831373 0 0 0 0 0.247059 0 0 0 0 0.552941 0 0 0 1 0"/>
<feBlend mode="normal" in2="BackgroundImageFix" result="effect1_dropShadow_35_16730"/>
<feBlend mode="normal" in="SourceGraphic" in2="effect1_dropShadow_35_16730" result="shape"/>
</filter>
<filter id="filter1_ii_35_16730" x="66.7632" y="89.2656" width="134.471" height="139.366" filterUnits="userSpaceOnUse" color-interpolation-filters="sRGB">
<feFlood flood-opacity="0" result="BackgroundImageFix"/>
<feBlend mode="normal" in="SourceGraphic" in2="BackgroundImageFix" result="shape"/>
<feColorMatrix in="SourceAlpha" type="matrix" values="0 0 0 0 0 0 0 0 0 0 0 0 0 0 0 0 0 0 127 0" result="hardAlpha"/>
<feOffset dy="1.22394"/>
<feGaussianBlur stdDeviation="2.44787"/>
<feComposite in2="hardAlpha" operator="arithmetic" k2="-1" k3="1"/>
<feColorMatrix type="matrix" values="0 0 0 0 0 0 0 0 0 0 0 0 0 0 0 0 0 0 0.6 0"/>
<feBlend mode="normal" in2="shape" result="effect1_innerShadow_35_16730"/>
<feColorMatrix in="SourceAlpha" type="matrix" values="0 0 0 0 0 0 0 0 0 0 0 0 0 0 0 0 0 0 127 0" result="hardAlpha"/>
<feOffset dy="4.89575"/>
<feGaussianBlur stdDeviation="2.44787"/>
<feComposite in2="hardAlpha" operator="arithmetic" k2="-1" k3="1"/>
<feColorMatrix type="matrix" values="0 0 0 0 0 0 0 0 0 0 0 0 0 0 0 0 0 0 0.25 0"/>
<feBlend mode="normal" in2="effect1_innerShadow_35_16730" result="effect2_innerShadow_35_16730"/>
</filter>
<linearGradient id="paint0_linear_35_16730" x1="13.5" y1="156.5" x2="376.772" y2="156.5" gradientUnits="userSpaceOnUse">
<stop stop-color="#D33F8D"/>
<stop offset="1" stop-color="white"/>
</linearGradient>
</defs>
</svg>
