<svg width="766" height="28" viewBox="0 0 766 28" fill="none" xmlns="http://www.w3.org/2000/svg">
<path fill-rule="evenodd" clip-rule="evenodd" d="M385 20C390.523 20 395 15.5228 395 10C395 4.47715 390.523 0 385 0C379.477 0 375 4.47715 375 10C375 15.5228 379.477 20 385 20ZM368.863 9L368.863 9.0625H9.99962C9.99987 9.0417 10 9.02086 10 9C10 6.23858 7.76142 4 5 4C2.23858 4 0 6.23858 0 9C0 11.7614 2.23858 14 5 14C7.39683 14 9.39976 12.3135 9.88688 10.0625H368.891C369.407 19.7592 376.932 27.5 386.208 27.5C395.483 27.5 403.009 19.7592 403.524 10.0625H755.113C755.6 12.3135 757.603 14 760 14C762.397 14 764.4 12.3135 764.887 10.0625H766V9.0625H765C765 9.0417 765 9.02086 765 9C765 6.23858 762.761 4 760 4C757.239 4 755 6.23858 755 9C755 9.02086 755 9.0417 755 9.0625H403.552L403.552 9H402.552C402.552 18.6988 395.206 26.5 386.208 26.5C377.21 26.5 369.863 18.6988 369.863 9H368.863Z" fill="url(#paint0_linear_35_12594)"/>
<defs>
<linearGradient id="paint0_linear_35_12594" x1="0" y1="13.75" x2="766" y2="13.75" gradientUnits="userSpaceOnUse">
<stop offset="0.253125" stop-color="#590DA6"/>
<stop offset="1" stop-color="#D43F8D"/>
</linearGradient>
</defs>
</svg>
