<svg width="230" height="230" viewBox="0 0 230 230" fill="none" xmlns="http://www.w3.org/2000/svg">
<circle cx="115" cy="115" r="115" fill="url(#paint0_linear_35_13181)"/>
<g filter="url(#filter0_ii_35_13181)">
<path d="M114.999 50.834C79.5787 50.834 50.832 79.5806 50.832 115.001C50.832 150.421 79.5787 179.167 114.999 179.167C150.419 179.167 179.165 150.421 179.165 115.001C179.165 79.5806 150.419 50.834 114.999 50.834ZM144.772 94.4673C143.81 104.606 139.639 129.246 137.521 140.603C136.623 145.416 134.826 147.02 133.158 147.212C129.436 147.533 126.613 144.774 123.02 142.4C117.373 138.678 114.165 136.368 108.71 132.775C102.358 128.604 106.465 126.294 110.122 122.572C111.085 121.61 127.511 106.659 127.832 105.311C127.877 105.107 127.871 104.896 127.815 104.694C127.759 104.493 127.655 104.308 127.511 104.156C127.126 103.836 126.613 103.964 126.164 104.028C125.586 104.156 116.603 110.124 99.0854 121.931C96.5187 123.663 94.2087 124.561 92.1554 124.497C89.8454 124.433 85.482 123.214 82.2095 122.123C78.167 120.84 75.0229 120.134 75.2795 117.888C75.4079 116.733 77.012 115.578 80.0279 114.359C98.7645 106.21 111.213 100.82 117.437 98.2531C135.275 90.8098 138.933 89.5265 141.371 89.5265C141.885 89.5265 143.104 89.6548 143.874 90.2965C144.515 90.8098 144.708 91.5156 144.772 92.029C144.708 92.414 144.836 93.569 144.772 94.4673Z" fill="#450089"/>
<path d="M114.999 50.834C79.5787 50.834 50.832 79.5806 50.832 115.001C50.832 150.421 79.5787 179.167 114.999 179.167C150.419 179.167 179.165 150.421 179.165 115.001C179.165 79.5806 150.419 50.834 114.999 50.834ZM144.772 94.4673C143.81 104.606 139.639 129.246 137.521 140.603C136.623 145.416 134.826 147.02 133.158 147.212C129.436 147.533 126.613 144.774 123.02 142.4C117.373 138.678 114.165 136.368 108.71 132.775C102.358 128.604 106.465 126.294 110.122 122.572C111.085 121.61 127.511 106.659 127.832 105.311C127.877 105.107 127.871 104.896 127.815 104.694C127.759 104.493 127.655 104.308 127.511 104.156C127.126 103.836 126.613 103.964 126.164 104.028C125.586 104.156 116.603 110.124 99.0854 121.931C96.5187 123.663 94.2087 124.561 92.1554 124.497C89.8454 124.433 85.482 123.214 82.2095 122.123C78.167 120.84 75.0229 120.134 75.2795 117.888C75.4079 116.733 77.012 115.578 80.0279 114.359C98.7645 106.21 111.213 100.82 117.437 98.2531C135.275 90.8098 138.933 89.5265 141.371 89.5265C141.885 89.5265 143.104 89.6548 143.874 90.2965C144.515 90.8098 144.708 91.5156 144.772 92.029C144.708 92.414 144.836 93.569 144.772 94.4673Z" fill="url(#paint1_radial_35_13181)"/>
</g>
<defs>
<filter id="filter0_ii_35_13181" x="50.832" y="50.834" width="128.333" height="132.333" filterUnits="userSpaceOnUse" color-interpolation-filters="sRGB">
<feFlood flood-opacity="0" result="BackgroundImageFix"/>
<feBlend mode="normal" in="SourceGraphic" in2="BackgroundImageFix" result="shape"/>
<feColorMatrix in="SourceAlpha" type="matrix" values="0 0 0 0 0 0 0 0 0 0 0 0 0 0 0 0 0 0 127 0" result="hardAlpha"/>
<feOffset dy="4"/>
<feGaussianBlur stdDeviation="12"/>
<feComposite in2="hardAlpha" operator="arithmetic" k2="-1" k3="1"/>
<feColorMatrix type="matrix" values="0 0 0 0 0 0 0 0 0 0 0 0 0 0 0 0 0 0 0.6 0"/>
<feBlend mode="normal" in2="shape" result="effect1_innerShadow_35_13181"/>
<feColorMatrix in="SourceAlpha" type="matrix" values="0 0 0 0 0 0 0 0 0 0 0 0 0 0 0 0 0 0 127 0" result="hardAlpha"/>
<feOffset dy="4"/>
<feGaussianBlur stdDeviation="25"/>
<feComposite in2="hardAlpha" operator="arithmetic" k2="-1" k3="1"/>
<feColorMatrix type="matrix" values="0 0 0 0 0 0 0 0 0 0 0 0 0 0 0 0 0 0 0.64 0"/>
<feBlend mode="normal" in2="effect1_innerShadow_35_13181" result="effect2_innerShadow_35_13181"/>
</filter>
<linearGradient id="paint0_linear_35_13181" x1="230" y1="159" x2="12" y2="67.5" gradientUnits="userSpaceOnUse">
<stop offset="0.15886" stop-color="#590DA6"/>
<stop offset="1" stop-color="#D43F8D"/>
</linearGradient>
<radialGradient id="paint1_radial_35_13181" cx="0" cy="0" r="1" gradientUnits="userSpaceOnUse" gradientTransform="translate(196.065 204.63) rotate(-135.531) scale(292.728 290.004)">
<stop offset="0.117355" stop-color="#FF00F5" stop-opacity="0.8"/>
<stop offset="0.414536" stop-color="#FF00F5" stop-opacity="0.4"/>
<stop offset="0.583111" stop-color="#FF00F5" stop-opacity="0.2"/>
<stop offset="0.751107" stop-color="#FF00F5" stop-opacity="0"/>
<stop offset="1" stop-color="#63005F" stop-opacity="0"/>
</radialGradient>
</defs>
</svg>
