<svg width="20" height="20" viewBox="0 0 20 20" fill="none" xmlns="http://www.w3.org/2000/svg">
<path d="M15.0537 1.00722L15.1704 1.23907L16.0432 3.56216C16.1114 3.744 16.2554 3.88948 16.4387 3.95767L18.6815 4.80023C19.6665 5.16846 20.1954 6.22014 19.9332 7.21575L19.8696 7.41275L18.827 9.72068C18.7869 9.8087 18.7661 9.9043 18.7661 10.001C18.7661 10.0978 18.7869 10.1934 18.827 10.2814L19.8181 12.4635C20.0254 12.9209 20.0559 13.439 19.9037 13.9175C19.7514 14.3961 19.4272 14.8013 18.9937 15.0548L18.7618 15.1715L16.4387 16.0444C16.3487 16.0785 16.267 16.1315 16.1991 16.1997C16.1312 16.2679 16.0785 16.3498 16.0447 16.4399L15.2022 18.6827C15.0258 19.1535 14.681 19.5422 14.2344 19.7735C13.7879 20.0047 13.2715 20.062 12.7852 19.9344L12.5882 19.8707L10.2802 18.8282C10.1922 18.788 10.0966 18.7673 9.99987 18.7673C9.90314 18.7673 9.80754 18.788 9.71953 18.8282L7.53889 19.8192C7.08148 20.0266 6.56345 20.0571 6.08487 19.9048C5.60629 19.7526 5.2011 19.4284 4.94758 18.9948L4.83089 18.763L3.95652 16.4399C3.92237 16.3499 3.86944 16.2682 3.80124 16.2003C3.73304 16.1323 3.65114 16.0797 3.561 16.0459L1.31823 15.2033C0.847359 15.0269 0.458684 14.6821 0.227452 14.2356C-0.00378125 13.7891 -0.0611248 13.2727 0.0665224 12.7863L0.130168 12.5893L1.17427 10.2814C1.2143 10.1933 1.23501 10.0977 1.23501 10.001C1.23501 9.90432 1.2143 9.80872 1.17427 9.72068L0.181692 7.54004C-0.0257977 7.08281 -0.0565266 6.56492 0.0954378 6.08635C0.247402 5.60779 0.571283 5.2025 1.00455 4.94873L1.2364 4.83205L3.561 3.95616C3.65129 3.92219 3.73328 3.86934 3.80149 3.80113C3.8697 3.73292 3.92255 3.65093 3.95652 3.56064L4.79907 1.31787C4.97546 0.847324 5.32005 0.458894 5.76622 0.227691C6.2124 -0.00351248 6.72845 -0.0610656 7.21459 0.0661607L7.4116 0.129807L9.71953 1.17391C9.80757 1.21393 9.90316 1.23464 9.99987 1.23464C10.0966 1.23464 10.1922 1.21393 10.2802 1.17391L12.4624 0.182845C12.9196 -0.0246439 13.4375 -0.0553728 13.9161 0.0965916C14.3946 0.248556 14.7999 0.573952 15.0537 1.00722Z" fill="url(#paint0_linear_35_12652)"/>
<path d="M13.8236 6.19601L8.93944 11.4204L7.15864 9.75262C7.02926 9.63668 6.85655 9.57279 6.67749 9.57464C6.49843 9.57649 6.32727 9.64392 6.20064 9.76251C6.07402 9.8811 6.00201 10.0414 6.00004 10.2091C5.99807 10.3768 6.06629 10.5385 6.19009 10.6597L8.48888 12.8126C8.55522 12.8746 8.63444 12.9232 8.72163 12.9554C8.80882 12.9875 8.90213 13.0026 8.99579 12.9996C9.08944 12.9967 9.18146 12.9758 9.26614 12.9382C9.35081 12.9006 9.42635 12.8471 9.48809 12.7811L14.8519 7.03995C14.9611 6.91083 15.0131 6.74731 14.9972 6.58326C14.9812 6.41922 14.8984 6.26721 14.7661 6.15874C14.6337 6.05027 14.4618 5.99363 14.2861 6.00057C14.1104 6.00751 13.9458 6.07748 13.8236 6.19601Z" fill="#090115"/>
<defs>
<linearGradient id="paint0_linear_35_12652" x1="1.86265e-08" y1="10.0004" x2="30.1471" y2="10.0004" gradientUnits="userSpaceOnUse">
<stop stop-color="#D33F8D"/>
<stop offset="1" stop-color="white"/>
</linearGradient>
</defs>
</svg>
