<svg width="110" height="110" viewBox="0 0 110 110" fill="none" xmlns="http://www.w3.org/2000/svg">
<circle cx="55" cy="55" r="55" fill="url(#paint0_linear_35_13182)"/>
<g clip-path="url(#clip0_35_13182)">
<g filter="url(#filter0_ii_35_13182)">
<path d="M55.1976 31.7461H55.5425C58.7278 31.7577 74.8671 31.874 79.2188 33.0442C80.5343 33.4014 81.7331 34.0975 82.6953 35.0631C83.6574 36.0287 84.3494 37.2299 84.7019 38.5467C85.0933 40.0192 85.3684 41.9683 85.5544 43.9795L85.5931 44.3825L85.6784 45.39L85.7094 45.793C85.9613 49.3347 85.9923 52.6517 85.9961 53.3763V53.667C85.9923 54.4187 85.9574 57.9605 85.6784 61.6495L85.6474 62.0563L85.6125 62.4593C85.4188 64.6758 85.132 66.8768 84.7019 68.4966C84.3504 69.8139 83.6589 71.0157 82.6965 71.9815C81.7342 72.9472 80.5348 73.643 79.2188 73.9991C74.7238 75.2081 57.6389 75.2933 55.2713 75.2972H54.721C53.5236 75.2972 48.5714 75.274 43.3789 75.0957L42.7201 75.0725L42.383 75.057L41.7204 75.0298L41.0578 75.0027C36.7565 74.8128 32.6606 74.5067 30.7735 73.9952C29.4579 73.6395 28.2589 72.9443 27.2966 71.9792C26.3342 71.0142 25.6424 69.8132 25.2904 68.4966C24.8603 66.8807 24.5735 64.6758 24.3798 62.4593L24.3488 62.0525L24.3178 61.6495C24.1265 59.0238 24.0205 56.3925 24 53.76L24 53.2833C24.0078 52.4502 24.0388 49.5711 24.248 46.3936L24.2751 45.9945L24.2868 45.793L24.3178 45.39L24.403 44.3825L24.4418 43.9795C24.6278 41.9683 24.9029 40.0153 25.2943 38.5467C25.6457 37.2294 26.3373 36.0276 27.2996 35.0619C28.262 34.0961 29.4613 33.4003 30.7774 33.0442C32.6645 32.5405 36.7604 32.2305 41.0616 32.0367L41.7204 32.0096L42.3869 31.9863L42.7201 31.9747L43.3828 31.9476C47.0706 31.8289 50.76 31.763 54.4498 31.75H55.1976V31.7461ZM48.8 44.1848V62.8546L64.9084 53.5236L48.8 44.1848Z" fill="url(#paint1_linear_35_13182)"/>
<path d="M55.1976 31.7461H55.5425C58.7278 31.7577 74.8671 31.874 79.2188 33.0442C80.5343 33.4014 81.7331 34.0975 82.6953 35.0631C83.6574 36.0287 84.3494 37.2299 84.7019 38.5467C85.0933 40.0192 85.3684 41.9683 85.5544 43.9795L85.5931 44.3825L85.6784 45.39L85.7094 45.793C85.9613 49.3347 85.9923 52.6517 85.9961 53.3763V53.667C85.9923 54.4187 85.9574 57.9605 85.6784 61.6495L85.6474 62.0563L85.6125 62.4593C85.4188 64.6758 85.132 66.8768 84.7019 68.4966C84.3504 69.8139 83.6589 71.0157 82.6965 71.9815C81.7342 72.9472 80.5348 73.643 79.2188 73.9991C74.7238 75.2081 57.6389 75.2933 55.2713 75.2972H54.721C53.5236 75.2972 48.5714 75.274 43.3789 75.0957L42.7201 75.0725L42.383 75.057L41.7204 75.0298L41.0578 75.0027C36.7565 74.8128 32.6606 74.5067 30.7735 73.9952C29.4579 73.6395 28.2589 72.9443 27.2966 71.9792C26.3342 71.0142 25.6424 69.8132 25.2904 68.4966C24.8603 66.8807 24.5735 64.6758 24.3798 62.4593L24.3488 62.0525L24.3178 61.6495C24.1265 59.0238 24.0205 56.3925 24 53.76L24 53.2833C24.0078 52.4502 24.0388 49.5711 24.248 46.3936L24.2751 45.9945L24.2868 45.793L24.3178 45.39L24.403 44.3825L24.4418 43.9795C24.6278 41.9683 24.9029 40.0153 25.2943 38.5467C25.6457 37.2294 26.3373 36.0276 27.2996 35.0619C28.262 34.0961 29.4613 33.4003 30.7774 33.0442C32.6645 32.5405 36.7604 32.2305 41.0616 32.0367L41.7204 32.0096L42.3869 31.9863L42.7201 31.9747L43.3828 31.9476C47.0706 31.8289 50.76 31.763 54.4498 31.75H55.1976V31.7461ZM48.8 44.1848V62.8546L64.9084 53.5236L48.8 44.1848Z" fill="url(#paint2_radial_35_13182)"/>
</g>
</g>
<defs>
<filter id="filter0_ii_35_13182" x="24" y="30.7461" width="61.9961" height="45.5513" filterUnits="userSpaceOnUse" color-interpolation-filters="sRGB">
<feFlood flood-opacity="0" result="BackgroundImageFix"/>
<feBlend mode="normal" in="SourceGraphic" in2="BackgroundImageFix" result="shape"/>
<feColorMatrix in="SourceAlpha" type="matrix" values="0 0 0 0 0 0 0 0 0 0 0 0 0 0 0 0 0 0 127 0" result="hardAlpha"/>
<feOffset dy="1"/>
<feGaussianBlur stdDeviation="1.5"/>
<feComposite in2="hardAlpha" operator="arithmetic" k2="-1" k3="1"/>
<feColorMatrix type="matrix" values="0 0 0 0 0 0 0 0 0 0 0 0 0 0 0 0 0 0 1 0"/>
<feBlend mode="normal" in2="shape" result="effect1_innerShadow_35_13182"/>
<feColorMatrix in="SourceAlpha" type="matrix" values="0 0 0 0 0 0 0 0 0 0 0 0 0 0 0 0 0 0 127 0" result="hardAlpha"/>
<feOffset dy="-1"/>
<feGaussianBlur stdDeviation="15"/>
<feComposite in2="hardAlpha" operator="arithmetic" k2="-1" k3="1"/>
<feColorMatrix type="matrix" values="0 0 0 0 0 0 0 0 0 0 0 0 0 0 0 0 0 0 1 0"/>
<feBlend mode="normal" in2="effect1_innerShadow_35_13182" result="effect2_innerShadow_35_13182"/>
</filter>
<linearGradient id="paint0_linear_35_13182" x1="72" y1="9.21163e-08" x2="37" y2="100" gradientUnits="userSpaceOnUse">
<stop stop-color="#590DA6"/>
<stop offset="0.810867" stop-color="#D43F8D"/>
</linearGradient>
<linearGradient id="paint1_linear_35_13182" x1="24" y1="53.5217" x2="85.9961" y2="53.5217" gradientUnits="userSpaceOnUse">
<stop offset="0.253125" stop-color="#4B0D89"/>
</linearGradient>
<radialGradient id="paint2_radial_35_13182" cx="0" cy="0" r="1" gradientUnits="userSpaceOnUse" gradientTransform="translate(26.6571 66.5138) rotate(-27.3156) scale(90.7155 97.2749)">
<stop stop-color="#FF00F5"/>
<stop offset="0.293226" stop-color="#FF00F5" stop-opacity="0.8"/>
<stop offset="0.651414" stop-color="#FF00F5" stop-opacity="0.4"/>
<stop offset="0.833265" stop-color="#FF00F5" stop-opacity="0"/>
<stop offset="1" stop-color="#63005F" stop-opacity="0"/>
</radialGradient>
<clipPath id="clip0_35_13182">
<rect width="62" height="62" fill="white" transform="translate(24 24)"/>
</clipPath>
</defs>
</svg>
