<svg width="384" height="28" viewBox="0 0 384 28" fill="none" xmlns="http://www.w3.org/2000/svg">
<path fill-rule="evenodd" clip-rule="evenodd" d="M191.875 20C197.398 20 201.875 15.5228 201.875 10C201.875 4.47715 197.398 0 191.875 0C186.352 0 181.875 4.47715 181.875 10C181.875 15.5228 186.352 20 191.875 20ZM175.498 9L175.498 9.0625H10.8746C10.8749 9.0417 10.875 9.02086 10.875 9C10.875 6.23858 8.63642 4 5.875 4C3.11358 4 0.875 6.23858 0.875 9C0.875 9.02086 0.875128 9.0417 0.875383 9.0625H0.875V10.0625H0.988123C1.47524 12.3135 3.47817 14 5.875 14C8.27183 14 10.2748 12.3135 10.7619 10.0625H175.526C176.041 19.759 183.561 27.5 192.831 27.5C202.101 27.5 209.621 19.759 210.136 10.0625H373.238C373.725 12.3135 375.728 14 378.125 14C380.886 14 383.125 11.7614 383.125 9C383.125 6.23858 380.886 4 378.125 4C375.364 4 373.125 6.23858 373.125 9C373.125 9.02086 373.125 9.0417 373.125 9.0625H210.164L210.164 9H209.164C209.164 18.6991 201.823 26.5 192.831 26.5C183.839 26.5 176.498 18.6991 176.498 9H175.498Z" fill="url(#paint0_linear_35_15036)"/>
<defs>
<linearGradient id="paint0_linear_35_15036" x1="0.875" y1="13.75" x2="383.125" y2="13.75" gradientUnits="userSpaceOnUse">
<stop offset="0.253125" stop-color="#590DA6"/>
<stop offset="1" stop-color="#D43F8D"/>
</linearGradient>
</defs>
</svg>
