<svg width="356" height="355" viewBox="0 0 356 355" fill="none" xmlns="http://www.w3.org/2000/svg">
<path d="M-29.9529 305.05C-25.4851 311.437 -17.4189 315.029 -6.38416 315.869C4.64137 316.709 18.473 314.784 34.2043 310.306C65.6573 301.354 104.484 282.261 143.198 255.126C181.913 227.99 213.116 197.999 232.277 171.476C241.861 158.21 248.399 145.857 251.381 135.199C254.366 124.532 253.754 115.716 249.286 109.329C244.818 102.942 236.752 99.351 225.717 98.5106C214.692 97.6709 200.86 99.5956 185.129 104.073C153.676 113.025 114.849 132.118 76.1348 159.254C37.4202 186.389 6.21717 216.38 -12.9443 242.904C-22.5279 256.17 -29.0655 268.522 -32.0482 279.18C-35.0333 289.847 -34.4208 298.663 -29.9529 305.05Z" stroke="url(#paint0_radial_35_14664)" stroke-width="2"/>
<path d="M39.3736 50.8231C35.015 57.2852 34.5523 66.1099 37.7183 76.7247C40.8817 87.3305 47.6282 99.5697 57.436 112.671C77.0455 138.865 108.754 168.321 147.924 194.794C187.095 221.268 226.24 239.698 257.841 248.114C273.646 252.323 287.508 254.013 298.518 252.986C309.537 251.958 317.541 248.23 321.9 241.768C326.258 235.306 326.721 226.481 323.555 215.866C320.392 205.261 313.645 193.021 303.837 179.92C284.228 153.726 252.52 124.27 213.349 97.7966C174.179 71.3234 135.033 52.8933 103.433 44.4771C87.6275 40.2677 73.765 38.5783 62.7553 39.6053C51.7363 40.6332 43.7323 44.3611 39.3736 50.8231Z" stroke="url(#paint1_radial_35_14664)" stroke-width="2"/>
<g filter="url(#filter0_b_35_14664)">
<circle cx="179.5" cy="207.5" r="67.5" fill="url(#paint2_radial_35_14664)"/>
<circle cx="179.5" cy="207.5" r="67.5" fill="url(#paint3_radial_35_14664)"/>
<circle cx="179.5" cy="207.5" r="67.5" fill="black" fill-opacity="0.2"/>
</g>
<path fill-rule="evenodd" clip-rule="evenodd" d="M178.228 191.088L174.936 200.948C174.936 200.948 172.048 199.399 168.511 199.399C163.325 199.399 163.064 202.674 163.064 203.5C163.064 208.004 174.725 209.729 174.725 220.279C174.725 228.579 169.496 233.926 162.446 233.926C153.983 233.926 149.657 228.623 149.657 228.623L151.923 221.068C151.923 221.068 156.377 224.906 160.13 224.906C162.575 224.906 163.592 222.964 163.592 221.543C163.592 215.67 154.029 215.402 154.029 205.752C154.029 197.627 159.815 189.765 171.518 189.765C176.021 189.765 178.248 191.064 178.248 191.064L178.228 191.088ZM173.011 163.01C173.491 163.01 173.975 163.173 174.44 163.497C170.866 165.186 167.039 169.448 165.422 177.961L158.612 180.081C160.507 173.591 165.003 163.01 173.011 163.01ZM176.323 166.166C177.011 167.896 177.456 170.374 177.456 173.72V174.208L168.838 176.896C170.498 170.452 173.607 167.338 176.326 166.166H176.323ZM184.547 172L180.376 173.299V172.397C180.376 169.619 179.996 167.386 179.383 165.615C181.848 165.927 183.492 168.751 184.547 172ZM196.853 175.711C196.853 175.711 203.498 176.206 203.81 176.233C204.125 176.281 204.505 176.501 204.566 176.939C204.624 177.378 214 241.202 214 241.202L187.29 247L138 237.705C138 237.705 144.326 188.461 144.566 186.724C144.88 184.433 144.958 184.355 147.374 183.592L155.176 181.155C156.847 174.037 162.173 160 173.321 160C174.774 160 176.461 160.787 177.824 162.598C177.957 162.591 178.09 162.586 178.226 162.586C183.01 162.586 185.731 166.704 187.271 171.164L189.854 170.36C190.217 170.262 191.209 170.092 191.718 170.603L195.376 174.256L196.853 175.728V175.711Z" fill="white"/>
<defs>
<filter id="filter0_b_35_14664" x="111.5" y="139.5" width="136" height="136" filterUnits="userSpaceOnUse" color-interpolation-filters="sRGB">
<feFlood flood-opacity="0" result="BackgroundImageFix"/>
<feGaussianBlur in="BackgroundImageFix" stdDeviation="0.25"/>
<feComposite in2="SourceAlpha" operator="in" result="effect1_backgroundBlur_35_14664"/>
<feBlend mode="normal" in="SourceGraphic" in2="effect1_backgroundBlur_35_14664" result="shape"/>
</filter>
<radialGradient id="paint0_radial_35_14664" cx="0" cy="0" r="1" gradientUnits="userSpaceOnUse" gradientTransform="translate(114.572 135.47) rotate(36.6517) scale(116.401 329.876)">
<stop offset="0.655563" stop-color="#590DA6" stop-opacity="0"/>
<stop offset="1" stop-color="#590DA6"/>
</radialGradient>
<radialGradient id="paint1_radial_35_14664" cx="0" cy="0" r="1" gradientUnits="userSpaceOnUse" gradientTransform="translate(249.294 125.21) rotate(105.635) scale(116.466 329.692)">
<stop offset="0.655563" stop-color="#590DA6" stop-opacity="0"/>
<stop offset="1" stop-color="#D43F8D"/>
</radialGradient>
<radialGradient id="paint2_radial_35_14664" cx="0" cy="0" r="1" gradientUnits="userSpaceOnUse" gradientTransform="translate(179.2 200.3) rotate(117.206) scale(83.992 95.7955)">
<stop offset="0.59932" stop-color="#D43F8D" stop-opacity="0"/>
<stop offset="1" stop-color="#D43F8D"/>
</radialGradient>
<radialGradient id="paint3_radial_35_14664" cx="0" cy="0" r="1" gradientUnits="userSpaceOnUse" gradientTransform="translate(172 215.9) rotate(-70.949) scale(88.2326 100.632)">
<stop offset="0.59932" stop-color="#D43F8D" stop-opacity="0"/>
<stop offset="1" stop-color="#D43F8D"/>
</radialGradient>
</defs>
</svg>
