<svg width="327" height="28" viewBox="0 0 327 28" fill="none" xmlns="http://www.w3.org/2000/svg">
<path fill-rule="evenodd" clip-rule="evenodd" d="M163.875 20C169.398 20 173.875 15.5228 173.875 10C173.875 4.47715 169.398 0 163.875 0C158.352 0 153.875 4.47715 153.875 10C153.875 15.5228 158.352 20 163.875 20ZM147.498 9L147.498 9.0625H10.8746C10.8749 9.0417 10.875 9.02086 10.875 9C10.875 6.23858 8.63642 4 5.875 4C3.11358 4 0.875 6.23858 0.875 9C0.875 9.02086 0.875128 9.0417 0.875383 9.0625H0.875V10.0625H0.988123C1.47524 12.3135 3.47817 14 5.875 14C8.27183 14 10.2748 12.3135 10.7619 10.0625H147.526C148.041 19.759 155.561 27.5 164.831 27.5C174.101 27.5 181.621 19.759 182.136 10.0625H316.238C316.725 12.3135 318.728 14 321.125 14C323.886 14 326.125 11.7614 326.125 9C326.125 6.23858 323.886 4 321.125 4C318.364 4 316.125 6.23858 316.125 9C316.125 9.02086 316.125 9.0417 316.125 9.0625H182.164L182.164 9H181.164C181.164 18.6991 173.823 26.5 164.831 26.5C155.839 26.5 148.498 18.6991 148.498 9H147.498Z" fill="url(#paint0_linear_35_15001)"/>
<defs>
<linearGradient id="paint0_linear_35_15001" x1="0.875" y1="13.75" x2="326.125" y2="13.75" gradientUnits="userSpaceOnUse">
<stop offset="0.253125" stop-color="#590DA6"/>
<stop offset="1" stop-color="#D43F8D"/>
</linearGradient>
</defs>
</svg>
