<svg width="126" height="93" viewBox="0 0 126 93" fill="none" xmlns="http://www.w3.org/2000/svg">
<path d="M124.87 25.9465C122.727 19.5985 113.224 16.5315 98.0614 17.2758C92.151 10.1463 84.2276 4.9678 75.3271 2.41759C66.4267 -0.132618 56.9636 0.064153 48.1755 2.98218C39.3873 5.9002 31.6831 11.4036 26.0703 18.7728C20.4575 26.142 17.1975 35.0338 16.7165 44.2855C4.07815 52.7879 -1.69707 60.961 0.45593 67.3315C1.77022 71.2288 5.75694 73.8779 12.1262 75.1737C16.2152 75.9292 20.3741 76.2395 24.5302 76.0994C25.4216 76.0816 26.3365 76.0482 27.2643 76.0021C32.801 82.6814 40.1127 87.6578 48.3556 90.3571C56.5986 93.0564 65.4369 93.3686 73.8507 91.2576C82.2646 89.1466 89.911 84.6985 95.9078 78.4265C101.905 72.1545 106.007 64.3143 107.742 55.8105C108.204 53.5585 108.498 51.2753 108.622 48.9797C116.175 43.8794 121.584 38.7104 123.918 33.9829C125.371 31.0824 125.686 28.3794 124.87 25.9465ZM71.0461 5.459C80.5579 7.40622 89.1028 12.586 95.2312 20.1197C101.36 27.6534 104.694 37.077 104.669 46.7919C95.1816 52.8721 82.4196 58.8476 68.3607 63.523C53.4155 68.4927 39.8687 71.1279 29.1043 71.8735C23.9943 65.0593 21.0754 56.8514 20.7347 48.3381C20.3941 39.8248 22.6477 31.4084 27.1969 24.2049C31.746 17.0014 38.3757 11.351 46.2069 8.00316C54.038 4.65528 62.7007 3.76801 71.0461 5.459ZM4.25219 66.0515C2.89806 62.049 7.63149 55.7113 16.7449 49.1619C17.1911 57.3379 19.8093 65.2462 24.3293 72.0711C12.9922 72.2714 5.59363 70.0411 4.25219 66.0515ZM54.2894 87.821C45.8748 86.1176 38.1893 81.8622 32.2783 75.6336C43.5075 74.5588 56.4648 71.6862 69.6087 67.32C82.8802 62.9032 94.8934 57.4237 104.334 51.6965C104.202 52.7979 104.039 53.9031 103.813 55.0111C101.579 65.9247 95.1112 75.5074 85.8274 81.658C76.5436 87.8086 65.2019 90.0249 54.2894 87.821ZM120.343 32.1985C118.501 35.9082 114.378 39.9962 108.602 44.1358C108.147 35.9393 105.511 28.014 100.966 21.1802C112.152 20.9952 119.728 23.2309 121.078 27.2275C121.541 28.6134 121.298 30.2844 120.343 32.1985Z" fill="url(#paint0_linear_35_14659)"/>
<defs>
<linearGradient id="paint0_linear_35_14659" x1="71.8356" y1="1.56334" x2="53.4938" y2="91.7164" gradientUnits="userSpaceOnUse">
<stop stop-color="#D43F8D"/>
<stop offset="1" stop-color="#590DA6"/>
</linearGradient>
</defs>
</svg>
