<svg width="291" height="27" viewBox="0 0 291 27" fill="none" xmlns="http://www.w3.org/2000/svg">
<path fill-rule="evenodd" clip-rule="evenodd" d="M147 20C152.523 20 157 15.5228 157 10C157 4.47715 152.523 0 147 0C141.477 0 137 4.47715 137 10C137 15.5228 141.477 20 147 20ZM129.623 9L129.623 9.03125H9.9999L10 9C10 6.23858 7.76142 4 5 4C2.23858 4 0 6.23858 0 9L9.56069e-05 9.03125H0V10.0312H0.106466C0.581737 12.2979 2.5921 14 5 14C7.40791 14 9.41826 12.2979 9.89353 10.0312H129.652C130.181 19.2139 137.72 26.5 146.956 26.5C156.192 26.5 163.731 19.2139 164.26 10.0312H281.106C281.582 12.2979 283.592 14 286 14C288.408 14 290.418 12.2979 290.894 10.0312H291V9.03125C291 9.02084 291 9.01042 291 9C291 6.23858 288.761 4 286 4C283.239 4 281 6.23858 281 9C281 9.01042 281 9.02084 281 9.03125H164.289L164.289 9H163.289C163.289 18.1193 155.974 25.5 146.956 25.5C137.938 25.5 130.623 18.1193 130.623 9H129.623Z" fill="url(#paint0_linear_35_14957)"/>
<defs>
<linearGradient id="paint0_linear_35_14957" x1="0" y1="13.25" x2="291" y2="13.25" gradientUnits="userSpaceOnUse">
<stop offset="0.253125" stop-color="#590DA6"/>
<stop offset="1" stop-color="#D43F8D"/>
</linearGradient>
</defs>
</svg>
