<svg width="209" height="160" viewBox="0 0 209 160" fill="none" xmlns="http://www.w3.org/2000/svg">
<path d="M206.728 129.019C211.677 118.543 203.518 103.283 183.738 85.9508C184.931 69.9649 181.275 53.9818 173.248 40.0917C165.221 26.2017 153.197 15.0512 138.748 8.09846C124.298 1.14574 108.097 -1.28557 92.2617 1.12247C76.4265 3.53051 61.6949 10.6658 49.9933 21.5953C24.0464 16.9528 7.0442 20.1652 2.08128 30.6825C-0.958489 37.1132 0.828796 45.2092 7.20793 54.4909C11.3951 60.3546 16.2034 65.7487 21.5488 70.579C22.6805 71.6303 23.8604 72.6906 25.0714 73.7505C23.9531 88.7264 27.0894 103.721 34.1184 117.005C41.1474 130.289 51.7827 141.32 64.7971 148.826C77.8115 156.332 92.6746 160.006 107.671 159.426C122.668 158.845 137.188 154.032 149.554 145.544C152.832 143.298 155.938 140.812 158.847 138.106C174.377 140.856 187.318 140.94 195.899 137.87C201.189 136.011 204.825 133.028 206.728 129.019ZM164.265 38.7199C173.777 52.5961 178.206 69.3291 176.799 86.0803C175.393 102.832 168.238 118.569 156.548 130.624C137.433 126.763 114.365 118.828 91.2409 107.715C66.6596 95.8999 46.622 82.8651 32.3181 70.8304C34.1298 56.2005 40.3436 42.4754 50.1355 31.4751C59.9274 20.4748 72.8349 12.7191 87.1463 9.23629C101.458 5.75349 116.497 6.70816 130.27 11.9737C144.043 17.2393 155.899 26.567 164.265 38.7199ZM8.34639 33.6616C11.4627 27.0521 24.9647 24.8682 44.1768 27.6953C34.9211 38.4032 28.6922 51.3935 26.1326 65.3262C11.7697 51.9234 5.22964 40.2398 8.34639 33.6616ZM44.5535 120.996C36.1155 108.744 31.6484 94.1959 31.7596 79.3297C47.0377 91.5149 66.6259 103.545 88.2389 113.941C110.072 124.428 131.612 132.078 150.246 136.322C148.759 137.533 147.229 138.711 145.619 139.818C129.739 150.703 110.182 154.835 91.2363 151.307C72.2905 147.778 55.5024 136.878 44.5535 120.996ZM193.585 131.344C186.84 133.742 176.798 133.862 164.635 132.056C173.904 121.312 180.131 108.279 182.671 94.3055C196.827 107.545 203.582 119.449 200.468 126.047C199.381 128.328 197.073 130.114 193.585 131.344Z" fill="url(#paint0_linear_35_14657)"/>
<defs>
<linearGradient id="paint0_linear_35_14657" x1="169.924" y1="34.8247" x2="38.8878" y2="124.883" gradientUnits="userSpaceOnUse">
<stop stop-color="#D43F8D"/>
<stop offset="1" stop-color="#590DA6"/>
</linearGradient>
</defs>
</svg>
