<svg width="172" height="27" viewBox="0 0 172 27" fill="none" xmlns="http://www.w3.org/2000/svg">
<path fill-rule="evenodd" clip-rule="evenodd" d="M88.125 20C93.6479 20 98.125 15.5228 98.125 10C98.125 4.47715 93.6479 0 88.125 0C82.6021 0 78.125 4.47715 78.125 10C78.125 15.5228 82.6021 20 88.125 20ZM71.2047 9L71.2047 9.03125H10.1249L10.125 9C10.125 6.23858 7.88642 4 5.125 4C2.36358 4 0.125 6.23858 0.125 9C0.125 11.7614 2.36358 14 5.125 14C7.53291 14 9.54326 12.2979 10.0185 10.0312H71.2343C71.7642 19.2151 79.3261 26.5 88.5874 26.5C97.8488 26.5 105.411 19.2151 105.941 10.0312H161.106C161.582 12.2979 163.592 14 166 14C168.408 14 170.418 12.2979 170.894 10.0312H171.875V9.03125H171C171 9.02084 171 9.01042 171 9C171 6.23858 168.761 4 166 4C163.239 4 161 6.23858 161 9C161 9.01042 161 9.02084 161 9.03125H105.97L105.97 9H104.97C104.97 18.1179 97.6341 25.5 88.5874 25.5C79.5408 25.5 72.2047 18.1179 72.2047 9H71.2047Z" fill="url(#paint0_linear_35_14922)"/>
<defs>
<linearGradient id="paint0_linear_35_14922" x1="0.125" y1="13.25" x2="171.875" y2="13.25" gradientUnits="userSpaceOnUse">
<stop offset="0.253125" stop-color="#590DA6"/>
<stop offset="1" stop-color="#D43F8D"/>
</linearGradient>
</defs>
</svg>
