<svg width="375" height="26" viewBox="0 0 375 26" fill="none" xmlns="http://www.w3.org/2000/svg">
<path fill-rule="evenodd" clip-rule="evenodd" d="M180 20C185.523 20 190 15.5228 190 10C190 4.47715 185.523 0 180 0C174.477 0 170 4.47715 170 10C170 15.5228 174.477 20 180 20ZM163.123 8.73674L163.123 8.76059H9.99437C9.86944 6.11034 7.68117 4 5 4C2.23858 4 0 6.23858 0 9C0 11.7614 2.23858 14 5 14C7.50284 14 9.57617 12.161 9.94252 9.76059H163.153C163.684 18.8217 171.228 26.0001 180.456 26.0001C189.684 26.0001 197.228 18.8217 197.759 9.76059H365.057C365.424 12.161 367.497 14 370 14C372.761 14 375 11.7614 375 9C375 6.23858 372.761 4 370 4C367.319 4 365.131 6.11034 365.006 8.76059H197.789L197.789 8.73674H196.789C196.789 17.7187 189.481 25.0001 180.456 25.0001C171.431 25.0001 164.123 17.7187 164.123 8.73674H163.123Z" fill="url(#paint0_linear_179_317)"/>
<defs>
<linearGradient id="paint0_linear_179_317" x1="-40" y1="13" x2="397" y2="13" gradientUnits="userSpaceOnUse">
<stop stop-color="white"/>
<stop offset="1" stop-color="#D43F8D"/>
</linearGradient>
</defs>
</svg>
