<svg width="959" height="1455" viewBox="0 0 959 1455" fill="none" xmlns="http://www.w3.org/2000/svg">
<path opacity="0.4" d="M1289.46 504.703C1321.31 569.852 1305.88 650.567 1255.01 728.458C1204.15 806.339 1117.91 881.31 1008.32 934.883C898.737 988.455 786.601 1010.46 693.904 1002.76C601.194 995.061 528.025 957.656 496.176 892.507C464.327 827.358 479.753 746.643 530.619 668.752C581.479 590.871 667.723 515.9 777.31 462.327C886.896 408.755 999.032 386.746 1091.73 394.447C1184.44 402.15 1257.61 439.554 1289.46 504.703Z" stroke="white"/>
<path opacity="0.25" d="M1708.32 433.307C1753.78 552.672 1708.75 693.676 1598.98 825.201C1489.21 956.713 1314.77 1078.65 1101.68 1159.81C888.593 1240.98 677.238 1265.98 507.795 1240.82C338.334 1215.65 210.911 1140.33 165.446 1020.97C119.982 901.601 165.011 760.598 274.79 629.073C384.558 497.561 558.991 375.623 772.082 294.46C985.172 213.296 1196.53 188.293 1365.97 213.457C1535.43 238.624 1662.85 313.942 1708.32 433.307Z" stroke="white"/>
</svg>
