<svg width="170" height="27" viewBox="0 0 170 27" fill="none" xmlns="http://www.w3.org/2000/svg">
<path fill-rule="evenodd" clip-rule="evenodd" d="M86 20C91.5229 20 96 15.5228 96 10C96 4.47715 91.5229 0 86 0C80.4771 0 76 4.47715 76 10C76 15.5228 80.4771 20 86 20ZM68.6226 9L68.6226 9.03125H9.9999L10 9C10 6.23858 7.76142 4 5 4C2.23858 4 0 6.23858 0 9L9.56069e-05 9.03125H0V10.0312H0.106466C0.581737 12.2979 2.5921 14 5 14C7.40791 14 9.41826 12.2979 9.89353 10.0312H68.6521C69.1805 19.2139 76.7196 26.5 85.956 26.5C95.1923 26.5 102.731 19.2139 103.26 10.0312H160.106C160.582 12.2979 162.592 14 165 14C167.408 14 169.418 12.2979 169.894 10.0312H170V9.03125C170 9.02084 170 9.01042 170 9C170 6.23858 167.761 4 165 4C162.239 4 160 6.23858 160 9C160 9.01042 160 9.02084 160 9.03125H103.289L103.289 9H102.289C102.289 18.1193 94.974 25.5 85.956 25.5C76.938 25.5 69.6226 18.1193 69.6226 9H68.6226Z" fill="url(#paint0_linear_35_13607)"/>
<defs>
<linearGradient id="paint0_linear_35_13607" x1="0" y1="13.25" x2="170" y2="13.25" gradientUnits="userSpaceOnUse">
<stop offset="0.253125" stop-color="#590DA6"/>
<stop offset="1" stop-color="#D43F8D"/>
</linearGradient>
</defs>
</svg>
