<svg width="550" height="28" viewBox="0 0 550 28" fill="none" xmlns="http://www.w3.org/2000/svg">
<path fill-rule="evenodd" clip-rule="evenodd" d="M274 20C279.523 20 284 15.5228 284 10C284 4.47715 279.523 0 274 0C268.477 0 264 4.47715 264 10C264 15.5228 268.477 20 274 20ZM257.857 9L257.857 9.0625H9.99962C9.99987 9.0417 10 9.02086 10 9C10 6.23858 7.76142 4 5 4C2.23858 4 0 6.23858 0 9C0 11.7614 2.23858 14 5 14C7.39683 14 9.39976 12.3135 9.88688 10.0625H257.885C258.401 19.7594 265.928 27.5 275.206 27.5C284.483 27.5 292.011 19.7594 292.526 10.0625H540.113C540.6 12.3135 542.603 14 545 14C547.397 14 549.4 12.3135 549.887 10.0625H550V9.0625C550 9.0417 550 9.02086 550 9C550 6.23858 547.761 4 545 4C542.239 4 540 6.23858 540 9C540 9.02086 540 9.0417 540 9.0625H292.554L292.554 9H291.554C291.554 18.6987 284.206 26.5 275.206 26.5C266.205 26.5 258.857 18.6987 258.857 9H257.857Z" fill="url(#paint0_linear_35_13701)"/>
<defs>
<linearGradient id="paint0_linear_35_13701" x1="0" y1="13.75" x2="550" y2="13.75" gradientUnits="userSpaceOnUse">
<stop offset="0.253125" stop-color="#590DA6"/>
<stop offset="1" stop-color="#D43F8D"/>
</linearGradient>
</defs>
</svg>
