<svg width="244" height="13" viewBox="0 0 244 13" fill="none" xmlns="http://www.w3.org/2000/svg">
<path fill-rule="evenodd" clip-rule="evenodd" d="M121.5 9C123.985 9 126 6.98528 126 4.5C126 2.01472 123.985 0 121.5 0C119.015 0 117 2.01472 117 4.5C117 6.98528 119.015 9 121.5 9ZM113.69 4L113.69 4.02818H3.99981L4 4C4 2.89543 3.10457 2 2 2C0.895431 2 0 2.89543 0 4L0.000194508 4.02818H0V4.47182H0.0559746C0.268041 5.34869 1.05796 6 2 6C2.94204 6 3.73196 5.34869 3.94403 4.47182H113.703C113.931 8.78074 117.262 12.2218 121.37 12.2218C125.477 12.2218 128.809 8.78074 129.037 4.47182H240.056C240.268 5.34869 241.058 6 242 6C243.105 6 244 5.10457 244 4C244 2.89543 243.105 2 242 2C240.895 2 240 2.89543 240 4C240 4.00941 240 4.0188 240 4.02818H129.049L129.049 4H128.606C128.606 8.31162 125.352 11.7782 121.37 11.7782C117.387 11.7782 114.134 8.31162 114.134 4H113.69Z" fill="url(#paint0_linear_35_18516)"/>
<defs>
<linearGradient id="paint0_linear_35_18516" x1="0" y1="6.11091" x2="244" y2="6.11091" gradientUnits="userSpaceOnUse">
<stop offset="0.253125" stop-color="#590DA6"/>
<stop offset="1" stop-color="#D43F8D"/>
</linearGradient>
</defs>
</svg>
