<svg width="729" height="28" viewBox="0 0 729 28" fill="none" xmlns="http://www.w3.org/2000/svg">
<path fill-rule="evenodd" clip-rule="evenodd" d="M361 20C366.523 20 371 15.5228 371 10C371 4.47715 366.523 0 361 0C355.477 0 351 4.47715 351 10C351 15.5228 355.477 20 361 20ZM344.359 9L344.359 9.0625H9.99962C9.99987 9.0417 10 9.02086 10 9C10 6.23858 7.76142 4 5 4C2.23858 4 0 6.23858 0 9C0 9.02086 0.000127784 9.0417 0.000382612 9.0625H0V10.0625H0.113123C0.600244 12.3135 2.60317 14 5 14C7.39683 14 9.39976 12.3135 9.88688 10.0625H344.387C344.903 19.7593 352.428 27.5 361.704 27.5C370.98 27.5 378.505 19.7593 379.021 10.0625H719.113C719.6 12.3135 721.603 14 724 14C726.397 14 728.4 12.3135 728.887 10.0625H729V9.0625C729 9.0417 729 9.02086 729 9C729 6.23858 726.761 4 724 4C721.239 4 719 6.23858 719 9C719 9.02086 719 9.0417 719 9.0625H379.049L379.049 9H378.049C378.049 18.6988 370.702 26.5 361.704 26.5C352.706 26.5 345.359 18.6988 345.359 9H344.359Z" fill="url(#paint0_linear_35_13578)"/>
<defs>
<linearGradient id="paint0_linear_35_13578" x1="0" y1="13.75" x2="729" y2="13.75" gradientUnits="userSpaceOnUse">
<stop offset="0.253125" stop-color="#590DA6"/>
<stop offset="1" stop-color="#D43F8D"/>
</linearGradient>
</defs>
</svg>
