<svg width="117" height="50" viewBox="0 0 117 50" fill="none" xmlns="http://www.w3.org/2000/svg">
<path d="M117 25.8179C117 17.444 112.97 10.8364 105.268 10.8364C97.5323 10.8364 92.8523 17.4442 92.8523 25.7525C92.8523 35.5982 98.3776 40.5702 106.307 40.5702C110.175 40.5702 113.1 39.687 115.31 38.4441V31.9019C113.1 33.0142 110.565 33.7012 107.348 33.7012C104.195 33.7012 101.4 32.5889 101.043 28.7291H116.935C116.935 28.3036 117 26.6028 117 25.8179ZM100.945 22.7104C100.945 19.0141 103.188 17.4766 105.235 17.4766C107.217 17.4766 109.33 19.0141 109.33 22.7104H100.945ZM80.3077 10.8364C77.1224 10.8364 75.0749 12.3411 73.9376 13.388L73.5148 11.3599H66.3651V49.5L74.4899 47.7665L74.5226 38.5095C75.6926 39.36 77.4149 40.5702 80.275 40.5702C86.0926 40.5702 91.39 35.8599 91.39 25.4908C91.3576 16.0047 85.995 10.8364 80.3075 10.8364H80.3077ZM78.3576 33.3739C76.4401 33.3739 75.3023 32.6871 74.5226 31.8366L74.4899 19.7009C75.335 18.7524 76.505 18.0983 78.3576 18.0983C81.315 18.0983 83.3625 21.4346 83.3625 25.7197C83.3625 30.1029 81.3475 33.3739 78.3576 33.3739ZM55.1849 8.90655L63.3425 7.14019V0.5L55.1849 2.2337V8.90655ZM55.1849 11.3926H63.3425V40.0141H55.1849V11.3926ZM46.4426 13.813L45.9225 11.3926H38.9025V40.0141H47.0276V20.617C48.9448 18.0983 52.195 18.5562 53.2025 18.9159V11.3926C52.1626 11 48.3601 10.2803 46.4426 13.813ZM30.1924 4.29446L22.2624 5.99527L22.23 32.1963C22.23 37.0377 25.8376 40.6029 30.6476 40.6029C33.3125 40.6029 35.2625 40.1123 36.3349 39.5235V32.8833C35.2952 33.3086 30.1599 34.8132 30.1599 29.972V18.3598H36.3349V11.3926H30.1599L30.1924 4.29446ZM8.22245 19.7009C8.22245 18.4254 9.26242 17.9345 10.9852 17.9345C13.455 17.9345 16.5749 18.6871 19.045 20.0282V12.3411C16.3476 11.2617 13.6826 10.8364 10.9852 10.8364C4.3875 10.8364 0 14.3038 0 20.0937C0 29.1215 12.3499 27.6824 12.3499 31.5751C12.3499 33.0795 11.0501 33.5703 9.22997 33.5703C6.53258 33.5703 3.08747 32.458 0.357398 30.9534V38.7385C3.37997 40.047 6.435 40.6029 9.22997 40.6029C15.9899 40.6029 20.6375 37.2339 20.6375 31.3787C20.605 21.631 8.22245 23.3645 8.22245 19.7009Z" fill="#635BFF"/>
</svg>
