<svg width="23" height="20" viewBox="0 0 23 20" fill="none" xmlns="http://www.w3.org/2000/svg">
<path d="M4.29526 3.05432H8.55289M4.26606 4.89911H8.52953M4.26606 6.71434H8.52953M4.26606 8.57687H8.52953M11 16.5C11 16.5 9.53991 15.4653 8.49448 15.4653H2V0.635994L8.70474 0.5C9.54606 0.50186 10.3532 0.837212 10.9533 1.43422L11 16.5ZM11 16.5C11 16.5 12.4601 15.4653 13.5055 15.4653H14.9364M11 16.5L11.0526 1.43422C11.6497 0.840064 12.4521 0.504941 13.2894 0.5H14.9247M16.7294 0.553215L20 0.60643V15.4653H16.7294" stroke="white" stroke-linecap="round" stroke-linejoin="round"/>
<path d="M17.4193 17.7583H22V2.31204H21.0541M2.30878 2.36481H1V17.7466H10.0187C10.504 17.9215 11.0096 18.0358 11.5238 18.0867C12.0083 18.0387 12.4843 17.9283 12.9397 17.7583H15.5929M15.5929 0.5V19.5L16.4793 18.8843L17.4193 19.4707V0.552778L15.5929 0.5Z" stroke="white" stroke-linecap="round" stroke-linejoin="round"/>
</svg>
