<svg width="20" height="20" viewBox="0 0 20 20" fill="none" xmlns="http://www.w3.org/2000/svg">
<path d="M7.639 3.96723e-08C6.63586 -0.000102195 5.64254 0.197391 4.71574 0.581201C3.78894 0.965012 2.94681 1.52762 2.23746 2.23691C1.5281 2.94619 0.965404 3.78826 0.581499 4.71502C0.197594 5.64178 3.44666e-08 6.63509 3.96763e-08 7.63822C-0.000102207 8.64141 0.197416 9.6348 0.581276 10.5617C0.965135 11.4885 1.52782 12.3307 2.23718 13.04C2.94655 13.7494 3.78871 14.3121 4.71556 14.6959C5.64241 15.0798 6.6358 15.2773 7.639 15.2772C9.42166 15.2772 11.0588 14.6459 12.3588 13.623L13.0399 14.3041C12.9001 14.5759 12.8505 14.8852 12.8986 15.187C12.9466 15.4889 13.0896 15.7676 13.3069 15.9825L16.8832 19.5829C17.4382 20.1387 18.3467 20.1387 18.9025 19.5829L19.5836 18.9017C19.8503 18.6334 20 18.2704 20 17.8921C20 17.5137 19.8503 17.1507 19.5836 16.8824L15.9833 13.3062C15.7668 13.0903 15.4865 12.9501 15.184 12.9064C14.8814 12.8626 14.5729 12.9176 14.3041 13.0633L13.623 12.3821C14.5146 11.257 15.0711 9.90338 15.2286 8.47648C15.3862 7.04958 15.1384 5.60716 14.5138 4.31462C13.8891 3.02208 12.9128 1.93173 11.6969 1.1686C10.481 0.405476 9.07457 0.000461811 7.639 3.96723e-08ZM7.639 1.41056C9.29067 1.41056 10.8747 2.06669 12.0426 3.2346C13.2105 4.40251 13.8666 5.98654 13.8666 7.63822C13.8666 9.28989 13.2105 10.8739 12.0426 12.0418C10.8747 13.2097 9.29067 13.8659 7.639 13.8659C5.98732 13.8659 4.40329 13.2097 3.23538 12.0418C2.06747 10.8739 1.41134 9.28989 1.41134 7.63822C1.41134 5.98654 2.06747 4.40251 3.23538 3.2346C4.40329 2.06669 5.98732 1.41056 7.639 1.41056ZM3.69767 5.66794C3.28247 6.34046 3.06353 7.11565 3.06556 7.90601C3.06464 8.46535 3.17413 9.01938 3.38776 9.53633C3.60138 10.0533 3.91494 10.523 4.31046 10.9185C4.70598 11.314 5.17568 11.6276 5.69262 11.8412C6.20957 12.0548 6.7636 12.1643 7.32294 12.1634C8.20227 12.1616 9.05984 11.8898 9.77975 11.3849C9.58568 11.4029 9.3908 11.4107 9.19591 11.4083C8.47342 11.4101 7.75768 11.2692 7.08982 10.9936C6.42196 10.718 5.81514 10.3131 5.30422 9.80228C4.7933 9.29144 4.38836 8.68468 4.11266 8.01685C3.83695 7.34903 3.69592 6.63331 3.69767 5.91082C3.69767 5.82986 3.69378 5.7489 3.69767 5.66794Z" fill="white"/>
</svg>
