<svg width="100" height="101" viewBox="0 0 100 101" fill="none" xmlns="http://www.w3.org/2000/svg">
<circle cx="50" cy="50.5" r="50" fill="url(#paint0_linear_35_13045)"/>
<g opacity="0.7" filter="url(#filter0_i_35_13045)">
<path d="M53.4615 72.5H44.2308C43.6187 72.5 43.0318 72.263 42.599 71.8412C42.1662 71.4193 41.9231 70.8471 41.9231 70.2505V56.3039H37.3077C36.6957 56.3039 36.1087 56.0669 35.6759 55.6451C35.2431 55.2232 35 54.6511 35 54.0545V45.9564C35 45.3598 35.2431 44.7877 35.6759 44.3658C36.1087 43.944 36.6957 43.707 37.3077 43.707H41.9231V39.8829C42.0848 36.4555 43.6322 33.23 46.2269 30.9116C48.8215 28.5932 52.2524 27.3705 55.7692 27.5109H62.6923C63.3043 27.5109 63.8913 27.7479 64.3241 28.1697C64.7569 28.5916 65 29.1637 65 29.7603V37.8584C65 38.455 64.7569 39.0271 64.3241 39.449C63.8913 39.8708 63.3043 40.1078 62.6923 40.1078H55.7692V43.707H62.6923C63.0486 43.7043 63.4007 43.7822 63.721 43.9344C64.0413 44.0866 64.3211 44.309 64.5385 44.5843C64.7534 44.8636 64.8987 45.1879 64.9628 45.5315C65.0269 45.8751 65.008 46.2285 64.9077 46.5638L62.6 54.6618C62.4604 55.1484 62.1568 55.575 61.7382 55.8729C61.3196 56.1707 60.8103 56.3226 60.2923 56.3039H55.7692V70.2505C55.7692 70.8471 55.5261 71.4193 55.0933 71.8412C54.6605 72.263 54.0736 72.5 53.4615 72.5ZM46.5385 68.0011H51.1538V54.0545C51.1538 53.4579 51.397 52.8857 51.8298 52.4639C52.2625 52.042 52.8495 51.805 53.4615 51.805H58.6308L59.6462 48.2059H53.4615C52.8495 48.2059 52.2625 47.9689 51.8298 47.547C51.397 47.1252 51.1538 46.553 51.1538 45.9564V39.8829C51.2131 38.7291 51.7254 37.6418 52.5846 36.8461C53.4438 36.0505 54.5841 35.6075 55.7692 35.6089H60.3846V32.0098H55.7692C53.4773 31.8737 51.2227 32.624 49.4946 34.0979C47.7665 35.5718 46.7043 37.6505 46.5385 39.8829V45.9564C46.5385 46.553 46.2953 47.1252 45.8626 47.547C45.4298 47.9689 44.8428 48.2059 44.2308 48.2059H39.6154V51.805H44.2308C44.8428 51.805 45.4298 52.042 45.8626 52.4639C46.2953 52.8857 46.5385 53.4579 46.5385 54.0545V68.0011Z" fill="white"/>
</g>
<defs>
<filter id="filter0_i_35_13045" x="34" y="26.5" width="31" height="46" filterUnits="userSpaceOnUse" color-interpolation-filters="sRGB">
<feFlood flood-opacity="0" result="BackgroundImageFix"/>
<feBlend mode="normal" in="SourceGraphic" in2="BackgroundImageFix" result="shape"/>
<feColorMatrix in="SourceAlpha" type="matrix" values="0 0 0 0 0 0 0 0 0 0 0 0 0 0 0 0 0 0 127 0" result="hardAlpha"/>
<feOffset dx="-1" dy="-1"/>
<feGaussianBlur stdDeviation="2"/>
<feComposite in2="hardAlpha" operator="arithmetic" k2="-1" k3="1"/>
<feColorMatrix type="matrix" values="0 0 0 0 0 0 0 0 0 0 0 0 0 0 0 0 0 0 0.25 0"/>
<feBlend mode="normal" in2="shape" result="effect1_innerShadow_35_13045"/>
</filter>
<linearGradient id="paint0_linear_35_13045" x1="0" y1="50.5" x2="100" y2="50.5" gradientUnits="userSpaceOnUse">
<stop offset="0.253125" stop-color="#590DA6"/>
<stop offset="1" stop-color="#D43F8D"/>
</linearGradient>
</defs>
</svg>
