<svg width="100" height="101" viewBox="0 0 100 101" fill="none" xmlns="http://www.w3.org/2000/svg">
<circle cx="50" cy="50.5" r="50" fill="url(#paint0_linear_35_13033)"/>
<g opacity="0.7" filter="url(#filter0_i_35_13033)">
<path d="M41.05 27.5H59.95C67.15 27.5 73 33.35 73 40.55V59.45C73 62.9111 71.6251 66.2304 69.1777 68.6777C66.7304 71.1251 63.4111 72.5 59.95 72.5H41.05C33.85 72.5 28 66.65 28 59.45V40.55C28 37.0889 29.3749 33.7696 31.8223 31.3223C34.2696 28.8749 37.5889 27.5 41.05 27.5ZM40.6 32C38.4517 32 36.3915 32.8534 34.8724 34.3724C33.3534 35.8915 32.5 37.9517 32.5 40.1V59.9C32.5 64.3775 36.1225 68 40.6 68H60.4C62.5483 68 64.6085 67.1466 66.1276 65.6276C67.6466 64.1085 68.5 62.0483 68.5 59.9V40.1C68.5 35.6225 64.8775 32 60.4 32H40.6ZM62.3125 35.375C63.0584 35.375 63.7738 35.6713 64.3012 36.1988C64.8287 36.7262 65.125 37.4416 65.125 38.1875C65.125 38.9334 64.8287 39.6488 64.3012 40.1762C63.7738 40.7037 63.0584 41 62.3125 41C61.5666 41 60.8512 40.7037 60.3238 40.1762C59.7963 39.6488 59.5 38.9334 59.5 38.1875C59.5 37.4416 59.7963 36.7262 60.3238 36.1988C60.8512 35.6713 61.5666 35.375 62.3125 35.375ZM50.5 38.75C53.4837 38.75 56.3452 39.9353 58.455 42.045C60.5647 44.1548 61.75 47.0163 61.75 50C61.75 52.9837 60.5647 55.8452 58.455 57.955C56.3452 60.0647 53.4837 61.25 50.5 61.25C47.5163 61.25 44.6548 60.0647 42.545 57.955C40.4353 55.8452 39.25 52.9837 39.25 50C39.25 47.0163 40.4353 44.1548 42.545 42.045C44.6548 39.9353 47.5163 38.75 50.5 38.75ZM50.5 43.25C48.7098 43.25 46.9929 43.9612 45.727 45.227C44.4612 46.4929 43.75 48.2098 43.75 50C43.75 51.7902 44.4612 53.5071 45.727 54.773C46.9929 56.0388 48.7098 56.75 50.5 56.75C52.2902 56.75 54.0071 56.0388 55.273 54.773C56.5388 53.5071 57.25 51.7902 57.25 50C57.25 48.2098 56.5388 46.4929 55.273 45.227C54.0071 43.9612 52.2902 43.25 50.5 43.25Z" fill="white"/>
</g>
<defs>
<filter id="filter0_i_35_13033" x="27" y="26.5" width="46" height="46" filterUnits="userSpaceOnUse" color-interpolation-filters="sRGB">
<feFlood flood-opacity="0" result="BackgroundImageFix"/>
<feBlend mode="normal" in="SourceGraphic" in2="BackgroundImageFix" result="shape"/>
<feColorMatrix in="SourceAlpha" type="matrix" values="0 0 0 0 0 0 0 0 0 0 0 0 0 0 0 0 0 0 127 0" result="hardAlpha"/>
<feOffset dx="-1" dy="-1"/>
<feGaussianBlur stdDeviation="2"/>
<feComposite in2="hardAlpha" operator="arithmetic" k2="-1" k3="1"/>
<feColorMatrix type="matrix" values="0 0 0 0 0 0 0 0 0 0 0 0 0 0 0 0 0 0 0.25 0"/>
<feBlend mode="normal" in2="shape" result="effect1_innerShadow_35_13033"/>
</filter>
<linearGradient id="paint0_linear_35_13033" x1="0" y1="50.5" x2="100" y2="50.5" gradientUnits="userSpaceOnUse">
<stop offset="0.253125" stop-color="#590DA6"/>
<stop offset="1" stop-color="#D43F8D"/>
</linearGradient>
</defs>
</svg>
