<svg width="47" height="41" viewBox="0 0 47 41" fill="none" xmlns="http://www.w3.org/2000/svg">
<path d="M0.584708 21.85L3.64969 17.3462L15.2016 10.8644L18.4724 11.2773L18.3156 13.4916L17.2414 13.3107L16.2752 13.148L15.3994 21.295L18.1425 29.1126L20.0604 28.4086L20.7261 30.548L17.6201 31.5414L4.81151 27.2777L0.768448 23.4209L6.30845 22.9165L6.70655 26.3202L10.0356 27.4283L13.1416 21.5006L8.729 16.2573L5.72661 17.9419L6.12471 21.3456L0.584708 21.85ZM15.4069 3.89075L16.0969 1.15539L19.1237 2.06862L18.9353 4.73326L15.4069 3.89075ZM19.4352 38.3311L22.6941 36.8707L23.4954 39.4452L20.7437 40.8846L19.4352 38.3311ZM17.625 21.0924L22.8822 15.8684L32.5701 17.4997L33.0867 21.9166L23.9805 25.2591L17.625 21.0924ZM17.4572 18.8802L17.8719 15.0247L20.8349 15.5237L17.4572 18.8802ZM17.9729 23.2882L22.0563 25.9654L19.2711 26.9877L17.9729 23.2882ZM20.0881 13.7902L21.0066 0.806563L31.9723 4.45658L22.2184 14.1489L20.0881 13.7902ZM21.7264 27.7969L23.7288 27.0619L35.5204 34.7928L25.6307 40.3415L21.7264 27.7969ZM24.2657 14.4936L31.3208 7.48296L28.466 15.201L24.2657 14.4936ZM25.6531 26.3557L29.6012 24.9065L34.1822 31.9475L25.6531 26.3557ZM30.2387 15.4995L31.2058 12.8848L40.1611 14.0154L40.6508 18.2022L34.5172 18.7606L34.2141 16.169L30.2387 15.4995ZM31.2674 24.2948L35.0041 22.9231L34.701 20.3316L40.8345 19.7731L41.3242 23.9599L32.8194 26.6801L31.2674 24.2948ZM32.9803 8.08688L33.5916 6.43432L35.8338 7.1108L35.1906 8.61474L32.9803 8.08688ZM35.667 31.0573L37.7085 30.1423L38.6863 31.4987L36.6479 32.5649L35.667 31.0573ZM41.9619 14.0255L44.9298 13.7553L45.236 16.3735L42.2682 16.6437L41.9619 14.0255ZM42.7786 21.0074L45.7464 20.7372L46.0527 23.3554L43.0848 23.6256L42.7786 21.0074Z" fill="white"/>
</svg>
