<svg width="100" height="101" viewBox="0 0 100 101" fill="none" xmlns="http://www.w3.org/2000/svg">
<circle cx="50" cy="50.5" r="50" fill="url(#paint0_linear_35_13036)"/>
<g opacity="0.7" filter="url(#filter0_i_35_13036)">
<path fill-rule="evenodd" clip-rule="evenodd" d="M37.6912 54.7273C37.7862 54.7595 37.884 54.7828 37.9832 54.797C38.609 56.2968 39.2314 57.7981 39.8502 59.3009C40.9628 62.0051 42.0843 64.7903 42.3299 65.5912C42.6374 66.5765 42.9603 67.247 43.3142 67.7059C43.4978 67.9399 43.708 68.1468 43.9557 68.3043C44.0848 68.3865 44.2229 68.4529 44.3672 68.5023C45.075 68.7723 45.721 68.6598 46.1258 68.5225C46.3633 68.4401 46.5893 68.3267 46.7982 68.1851L46.8093 68.1806L53.0605 64.2166L60.2829 69.8454C60.3891 69.9286 60.5041 69.9984 60.628 70.0546C61.4951 70.4371 62.3357 70.572 63.1276 70.4641C63.9151 70.3516 64.5411 70.0164 65.0078 69.6362C65.5438 69.1968 65.9711 68.6359 66.2554 67.9984L66.2754 67.9489L66.282 67.9309L66.2864 67.9219V67.9174L66.2886 67.9151C66.3271 67.8184 66.3567 67.7182 66.3771 67.6159L72.969 33.8139C72.9898 33.7057 73.0002 33.5957 73 33.4854C73 32.4955 72.6328 31.5529 71.7723 30.9837C71.0335 30.4955 70.2128 30.473 69.693 30.5135C69.1355 30.5585 68.6179 30.698 68.2706 30.8105C68.0762 30.8731 67.8844 30.9437 67.6955 31.022L67.6712 31.0332L30.6989 45.7824L30.6945 45.7846C30.5694 45.8314 30.4461 45.8832 30.3251 45.9399C30.0319 46.0739 29.7506 46.2335 29.4845 46.4168C28.9823 46.7655 27.8254 47.7239 28.0223 49.3077C28.1772 50.5675 29.0266 51.3437 29.5464 51.7171C29.8296 51.9219 30.0994 52.0681 30.2985 52.1648C30.387 52.2098 30.5772 52.2863 30.6591 52.3223L30.6812 52.3291L37.6912 54.7273ZM68.9652 34.1378H68.9608C68.9418 34.1464 68.9226 34.1547 68.9033 34.1626L31.8868 48.932C31.8677 48.9398 31.8486 48.9473 31.8293 48.9545L31.8071 48.9612C31.7395 48.9883 31.6731 49.0183 31.6081 49.0512C31.6696 49.0871 31.7331 49.1194 31.7983 49.148L38.7486 51.5282C38.8728 51.5707 38.9916 51.6281 39.1025 51.6991L62.057 38.0321L62.0791 38.0208C62.1682 37.9657 62.2598 37.9147 62.3534 37.8679C62.5126 37.7846 62.767 37.6631 63.0546 37.5731C63.2537 37.5101 63.8443 37.3324 64.4814 37.5416C64.8193 37.65 65.1204 37.8528 65.3504 38.1268C65.5804 38.4009 65.73 38.7353 65.7821 39.0917C65.8644 39.4039 65.8667 39.7323 65.7887 40.0456C65.6339 40.6643 65.2091 41.1457 64.8198 41.5147C64.488 41.8296 60.1856 46.0501 55.9406 50.2166L50.1605 55.8859L49.1319 56.8982L62.1211 67.0265C62.2964 67.1013 62.4869 67.1322 62.6763 67.1165C62.7718 67.1033 62.8616 67.0627 62.9352 66.9995C63.0248 66.9225 63.1018 66.8313 63.163 66.7295L63.1674 66.7273L69.5603 33.9421C69.3589 33.9914 69.1614 34.056 68.9696 34.1356L68.9652 34.1378ZM50.249 62.0209L47.6565 60.0006L47.0283 64.0614L50.249 62.0209ZM45.2785 55.9916L47.8556 53.4607L53.6357 47.7869L55.788 45.6766L41.3654 54.2638L41.4428 54.4483C42.3524 56.6337 43.252 58.8235 44.1415 61.0175L44.7676 56.968C44.8242 56.5924 45.0043 56.2497 45.2785 55.9916Z" fill="white"/>
</g>
<defs>
<filter id="filter0_i_35_13036" x="27" y="29.5" width="46" height="41" filterUnits="userSpaceOnUse" color-interpolation-filters="sRGB">
<feFlood flood-opacity="0" result="BackgroundImageFix"/>
<feBlend mode="normal" in="SourceGraphic" in2="BackgroundImageFix" result="shape"/>
<feColorMatrix in="SourceAlpha" type="matrix" values="0 0 0 0 0 0 0 0 0 0 0 0 0 0 0 0 0 0 127 0" result="hardAlpha"/>
<feOffset dx="-1" dy="-1"/>
<feGaussianBlur stdDeviation="2"/>
<feComposite in2="hardAlpha" operator="arithmetic" k2="-1" k3="1"/>
<feColorMatrix type="matrix" values="0 0 0 0 0 0 0 0 0 0 0 0 0 0 0 0 0 0 0.25 0"/>
<feBlend mode="normal" in2="shape" result="effect1_innerShadow_35_13036"/>
</filter>
<linearGradient id="paint0_linear_35_13036" x1="0" y1="50.5" x2="100" y2="50.5" gradientUnits="userSpaceOnUse">
<stop offset="0.253125" stop-color="#590DA6"/>
<stop offset="1" stop-color="#D43F8D"/>
</linearGradient>
</defs>
</svg>
