<svg width="100" height="101" viewBox="0 0 100 101" fill="none" xmlns="http://www.w3.org/2000/svg">
<circle cx="50" cy="50.5" r="50" fill="url(#paint0_linear_35_13042)"/>
<g opacity="0.7" filter="url(#filter0_i_35_13042)">
<path d="M67.6138 39.2387C67.4428 38.5682 66.9568 38.062 66.4011 37.9067C65.4156 37.63 60.6256 37 50.5011 37C40.3766 37 35.5889 37.63 34.5967 37.9067C34.0477 38.0597 33.5617 38.566 33.3885 39.2387C33.1432 40.1927 32.502 44.1888 32.502 50.5C32.502 56.809 33.1432 60.805 33.3885 61.7635C33.5595 62.4318 34.0454 62.938 34.5989 63.091C35.5889 63.37 40.3744 64 50.4989 64C60.6234 64 65.4134 63.37 66.4033 63.0933C66.9523 62.9403 67.4383 62.434 67.6115 61.7612C67.859 60.8072 68.498 56.8 68.498 50.5C68.498 44.2 67.859 40.195 67.6138 39.2387ZM71.9718 38.1205C73 42.13 73 50.5 73 50.5C73 50.5 73 58.87 71.9718 62.8795C71.4003 65.0958 69.7287 66.8395 67.6115 67.429C63.7665 68.5 50.4989 68.5 50.4989 68.5C50.4989 68.5 37.2403 68.5 33.3885 67.429C31.2623 66.8305 29.5929 65.089 29.0282 62.8795C28 58.87 28 50.5 28 50.5C28 50.5 28 42.13 29.0282 38.1205C29.5997 35.9043 31.2713 34.1605 33.3885 33.571C37.2425 32.5 50.5011 32.5 50.5011 32.5C50.5011 32.5 63.7665 32.5 67.6115 33.571C69.7354 34.1695 71.4071 35.911 71.9718 38.1205ZM46.0014 58.375V42.625L59.5007 50.5L46.0014 58.375Z" fill="white"/>
</g>
<defs>
<filter id="filter0_i_35_13042" x="27" y="31.5" width="46" height="37" filterUnits="userSpaceOnUse" color-interpolation-filters="sRGB">
<feFlood flood-opacity="0" result="BackgroundImageFix"/>
<feBlend mode="normal" in="SourceGraphic" in2="BackgroundImageFix" result="shape"/>
<feColorMatrix in="SourceAlpha" type="matrix" values="0 0 0 0 0 0 0 0 0 0 0 0 0 0 0 0 0 0 127 0" result="hardAlpha"/>
<feOffset dx="-1" dy="-1"/>
<feGaussianBlur stdDeviation="2"/>
<feComposite in2="hardAlpha" operator="arithmetic" k2="-1" k3="1"/>
<feColorMatrix type="matrix" values="0 0 0 0 0 0 0 0 0 0 0 0 0 0 0 0 0 0 0.25 0"/>
<feBlend mode="normal" in2="shape" result="effect1_innerShadow_35_13042"/>
</filter>
<linearGradient id="paint0_linear_35_13042" x1="0" y1="50.5" x2="100" y2="50.5" gradientUnits="userSpaceOnUse">
<stop offset="0.253125" stop-color="#590DA6"/>
<stop offset="1" stop-color="#D43F8D"/>
</linearGradient>
</defs>
</svg>
