<svg width="100" height="520" viewBox="0 0 100 520" fill="none" xmlns="http://www.w3.org/2000/svg">
<path fill-rule="evenodd" clip-rule="evenodd" d="M85 50C85 69.33 69.33 85 50 85C30.67 85 15 69.33 15 50C15 30.67 30.67 15 50 15C69.33 15 85 30.67 85 50ZM85 190C85 209.33 69.33 225 50 225C30.67 225 15 209.33 15 190C15 170.67 30.67 155 50 155C69.33 155 85 170.67 85 190ZM85 330C85 349.33 69.33 365 50 365C30.67 365 15 349.33 15 330C15 310.67 30.67 295 50 295C69.33 295 85 310.67 85 330ZM85 470C85 489.33 69.33 505 50 505C30.67 505 15 489.33 15 470C15 450.67 30.67 435 50 435C69.33 435 85 450.67 85 470ZM52.5 99.9386C78.9528 98.636 100 76.7759 100 50C100 22.3858 77.6142 0 50 0C22.3858 0 0 22.3858 0 50C0 76.7759 21.0472 98.636 47.5 99.9386V140.061C21.0472 141.364 0 163.224 0 190C0 216.776 21.0472 238.636 47.5 239.939V280.061C21.0472 281.364 0 303.224 0 330C0 356.776 21.0472 378.636 47.5 379.939V420.061C21.0472 421.364 0 443.224 0 470C0 497.614 22.3858 520 50 520C77.6142 520 100 497.614 100 470C100 443.224 78.9528 421.364 52.5 420.061V379.939C78.9528 378.636 100 356.776 100 330C100 303.224 78.9528 281.364 52.5 280.061V239.939C78.9528 238.636 100 216.776 100 190C100 163.224 78.9528 141.364 52.5 140.061V99.9386Z" fill="url(#paint0_linear_35_12615)"/>
<defs>
<linearGradient id="paint0_linear_35_12615" x1="0" y1="260" x2="100" y2="260" gradientUnits="userSpaceOnUse">
<stop offset="0.253125" stop-color="#590DA6"/>
<stop offset="1" stop-color="#D43F8D"/>
</linearGradient>
</defs>
</svg>
