<svg width="85" height="526" viewBox="0 0 85 526" fill="none" xmlns="http://www.w3.org/2000/svg">
<path fill-rule="evenodd" clip-rule="evenodd" d="M42.5 70C57.6878 70 70 57.6878 70 42.5C70 27.3122 57.6878 15 42.5 15C27.3122 15 15 27.3122 15 42.5C15 57.6878 27.3122 70 42.5 70ZM45.5 84.8958C67.5722 83.3565 85 64.9635 85 42.5C85 19.0279 65.9721 0 42.5 0C19.0279 0 0 19.0279 0 42.5C0 64.6232 16.9037 82.7983 38.5 84.8142V147.186C16.9037 149.202 0 167.377 0 189.5C0 211.623 16.9037 229.798 38.5 231.814L38.5 294.186C16.9037 296.202 0 314.377 0 336.5C0 358.623 16.9037 376.798 38.5 378.814V441.186C16.9037 443.202 0 461.377 0 483.5C0 506.972 19.0279 526 42.5 526C65.9721 526 85 506.972 85 483.5C85 461.036 67.5722 442.643 45.5 441.104V378.896C67.5722 377.357 85 358.964 85 336.5C85 314.036 67.5722 295.643 45.5 294.104L45.5 231.896C67.5722 230.357 85 211.964 85 189.5C85 167.036 67.5722 148.643 45.5 147.104V84.8958ZM42.5 217C57.6878 217 70 204.688 70 189.5C70 174.312 57.6878 162 42.5 162C27.3122 162 15 174.312 15 189.5C15 204.688 27.3122 217 42.5 217ZM70 336.5C70 351.688 57.6878 364 42.5 364C27.3122 364 15 351.688 15 336.5C15 321.312 27.3122 309 42.5 309C57.6878 309 70 321.312 70 336.5ZM42.5 511C57.6878 511 70 498.688 70 483.5C70 468.312 57.6878 456 42.5 456C27.3122 456 15 468.312 15 483.5C15 498.688 27.3122 511 42.5 511Z" fill="url(#paint0_linear_35_17032)"/>
<defs>
<linearGradient id="paint0_linear_35_17032" x1="0" y1="263" x2="85" y2="263" gradientUnits="userSpaceOnUse">
<stop offset="0.253125" stop-color="#590DA6"/>
<stop offset="1" stop-color="#D43F8D"/>
</linearGradient>
</defs>
</svg>
