<svg width="437" height="27" viewBox="0 0 437 27" fill="none" xmlns="http://www.w3.org/2000/svg">
<path fill-rule="evenodd" clip-rule="evenodd" d="M220 20C225.523 20 230 15.5228 230 10C230 4.47715 225.523 0 220 0C214.477 0 210 4.47715 210 10C210 15.5228 214.477 20 220 20ZM203.123 9L203.123 9.03125H9.9999L10 9C10 6.23858 7.76142 4 5 4C2.23858 4 0 6.23858 0 9L9.56069e-05 9.03125H0V10.0312H0.106466C0.581737 12.2979 2.5921 14 5 14C7.40791 14 9.41826 12.2979 9.89353 10.0312H203.152C203.681 19.2139 211.22 26.5 220.456 26.5C229.692 26.5 237.231 19.2139 237.76 10.0312H427.106C427.582 12.2979 429.592 14 432 14C434.408 14 436.418 12.2979 436.894 10.0312H437V9.03125C437 9.02084 437 9.01042 437 9C437 6.23858 434.761 4 432 4C429.239 4 427 6.23858 427 9C427 9.01042 427 9.02084 427 9.03125H237.789L237.789 9H236.789C236.789 18.1193 229.474 25.5 220.456 25.5C211.438 25.5 204.123 18.1193 204.123 9H203.123Z" fill="url(#paint0_linear_35_13899)"/>
<defs>
<linearGradient id="paint0_linear_35_13899" x1="0" y1="13.25" x2="437" y2="13.25" gradientUnits="userSpaceOnUse">
<stop offset="0.253125" stop-color="#590DA6"/>
<stop offset="1" stop-color="#D43F8D"/>
</linearGradient>
</defs>
</svg>
