<svg width="626" height="626" viewBox="0 0 626 626" fill="none" xmlns="http://www.w3.org/2000/svg">
<path opacity="0.4" d="M361.962 384.494C295.493 430.465 229.769 464.037 177.25 481.159C150.987 489.721 128.049 494.161 109.982 493.996C91.9009 493.829 78.798 489.052 72.0507 479.299C65.3035 469.547 65.4549 455.604 71.677 438.629C77.8943 421.666 90.1411 401.772 107.418 380.222C141.967 337.125 196.569 287.477 263.038 241.506C329.507 195.535 395.23 161.963 447.751 144.841C474.013 136.279 496.951 131.839 515.018 132.004C533.099 132.171 546.202 136.948 552.949 146.701C559.697 156.453 559.545 170.396 553.323 187.371C547.106 204.334 534.859 224.228 517.582 245.778C483.032 288.875 428.431 338.523 361.962 384.494Z" stroke="url(#paint0_linear_35_13749)"/>
<path opacity="0.4" d="M322.226 371.186C286.246 396.127 250.055 413.437 220.64 421.27C205.931 425.186 192.937 426.727 182.523 425.681C172.105 424.636 164.325 421.012 159.938 414.657C155.551 408.301 154.912 399.727 157.609 389.59C160.308 379.455 166.329 367.815 175.175 355.404C192.864 330.584 221.793 302.755 257.774 277.814C293.755 252.873 329.945 235.563 359.36 227.731C374.07 223.814 387.062 222.273 397.477 223.319C407.894 224.364 415.675 227.988 420.062 234.343C424.449 240.699 425.089 249.273 422.39 259.41C419.692 269.545 413.67 281.185 404.825 293.596C387.136 318.416 358.206 346.245 322.226 371.186Z" stroke="url(#paint1_linear_35_13749)"/>
<path d="M169.754 376.056C177.36 377.442 184.65 372.4 186.037 364.793C187.423 357.186 182.38 349.896 174.773 348.51C167.166 347.124 159.876 352.166 158.49 359.773C157.104 367.38 162.147 374.67 169.754 376.056Z" fill="url(#paint2_linear_35_13749)"/>
<path d="M237.689 265.102C241.764 265.844 245.67 263.143 246.412 259.068C247.155 254.993 244.454 251.087 240.378 250.345C236.303 249.602 232.398 252.303 231.655 256.378C230.913 260.454 233.614 264.359 237.689 265.102Z" fill="url(#paint3_linear_35_13749)"/>
<path d="M76.1904 439.689C82.4388 440.828 88.4271 436.685 89.5658 430.437C90.7044 424.189 86.5621 418.2 80.3137 417.062C74.0653 415.923 68.077 420.065 66.9384 426.314C65.7998 432.562 69.942 438.55 76.1904 439.689Z" fill="url(#paint4_linear_35_13749)"/>
<defs>
<linearGradient id="paint0_linear_35_13749" x1="553.289" y1="146.465" x2="71.7589" y2="479.604" gradientUnits="userSpaceOnUse">
<stop stop-color="#D43F8D"/>
<stop offset="1" stop-color="#590DA6"/>
</linearGradient>
<linearGradient id="paint1_linear_35_13749" x1="420.401" y1="234.109" x2="159.244" y2="414.378" gradientUnits="userSpaceOnUse">
<stop stop-color="#D43F8D"/>
<stop offset="1" stop-color="#590DA6"/>
</linearGradient>
<linearGradient id="paint2_linear_35_13749" x1="174.773" y1="348.509" x2="169.754" y2="376.056" gradientUnits="userSpaceOnUse">
<stop stop-color="#651B42"/>
<stop offset="1" stop-color="#1D0A30"/>
</linearGradient>
<linearGradient id="paint3_linear_35_13749" x1="240.378" y1="250.345" x2="237.689" y2="265.101" gradientUnits="userSpaceOnUse">
<stop stop-color="#651B42"/>
<stop offset="1" stop-color="#1D0A30"/>
</linearGradient>
<linearGradient id="paint4_linear_35_13749" x1="80.3137" y1="417.062" x2="76.1905" y2="439.689" gradientUnits="userSpaceOnUse">
<stop stop-color="#651B42"/>
<stop offset="1" stop-color="#1D0A30"/>
</linearGradient>
</defs>
</svg>
