<svg width="216" height="27" viewBox="0 0 216 27" fill="none" xmlns="http://www.w3.org/2000/svg">
<path fill-rule="evenodd" clip-rule="evenodd" d="M109 20C114.523 20 119 15.5228 119 10C119 4.47715 114.523 0 109 0C103.477 0 99 4.47715 99 10C99 15.5228 103.477 20 109 20ZM92.6225 9L92.6226 9.03125H9.9999L10 9C10 6.23858 7.76142 4 5 4C2.23858 4 0 6.23858 0 9C0 11.7614 2.23858 14 5 14C7.40791 14 9.41826 12.2979 9.89353 10.0312H92.6521C93.1805 19.2139 100.72 26.5 109.956 26.5C119.192 26.5 126.731 19.2139 127.26 10.0312H206.106C206.582 12.2979 208.592 14 211 14C213.408 14 215.418 12.2979 215.894 10.0312H216V9.03125C216 9.02084 216 9.01042 216 9C216 6.23858 213.761 4 211 4C208.239 4 206 6.23858 206 9C206 9.01042 206 9.02084 206 9.03125H127.289L127.289 9H126.289C126.289 18.1193 118.974 25.5 109.956 25.5C100.938 25.5 93.6225 18.1193 93.6225 9H92.6225Z" fill="url(#paint0_linear_35_13907)"/>
<defs>
<linearGradient id="paint0_linear_35_13907" x1="0" y1="13.25" x2="216" y2="13.25" gradientUnits="userSpaceOnUse">
<stop offset="0.253125" stop-color="#590DA6"/>
<stop offset="1" stop-color="#D43F8D"/>
</linearGradient>
</defs>
</svg>
