<svg width="247" height="247" viewBox="0 0 247 247" fill="none" xmlns="http://www.w3.org/2000/svg">
<g opacity="0.5">
<path d="M179.614 54.6395L179.652 54.6699L179.699 54.6579C193.896 51.05 205.775 49.7822 214.913 50.8054C224.051 51.8288 230.43 55.1407 233.658 60.6762C236.123 64.9218 236.568 70.1105 234.941 76.1175L234.941 76.118C232.351 85.9007 224.121 97.7054 211.795 110.215L211.761 110.25L211.768 110.298C212.416 114.668 212.739 119.081 212.732 123.499C212.722 140.178 207.983 156.515 199.06 170.624C190.137 184.733 177.394 196.039 162.302 203.239C147.21 210.438 130.384 213.236 113.765 211.311C97.1464 209.386 81.4122 202.816 68.3781 192.359L68.3401 192.328L68.2929 192.34C66.5559 192.783 64.8383 193.196 63.1594 193.571L63.1581 193.572C55.3548 195.429 47.3729 196.438 39.3518 196.582C26.8136 196.582 18.2956 193.12 14.3347 186.322L14.2503 186.371L14.3346 186.322C11.0934 180.767 11.3967 173.601 15.0999 165.202C18.8031 156.804 25.9 147.189 36.2168 136.754L36.2512 136.719L36.2439 136.671C33.5952 119.064 36.3377 101.07 44.113 85.0415C51.8882 69.0134 64.3342 55.6974 79.8233 46.8349C95.3125 37.9725 113.124 33.9762 130.928 35.3687C148.732 36.7611 165.701 43.4775 179.614 54.6395ZM124.006 42.5496H124.006C107.543 42.5627 91.4734 47.5641 77.9273 56.8908C64.3813 66.2175 53.9989 79.4289 48.1569 94.7731C42.3149 110.117 41.2893 126.869 45.2162 142.808C49.1431 158.747 57.8368 173.119 70.1446 184.018L70.1843 184.054L70.2353 184.039C90.3264 178.502 114.954 168.335 141.327 153.229C166.135 139.019 187.991 122.854 203.61 107.745L203.648 107.708L203.638 107.656C199.94 89.3087 189.991 72.8016 175.476 60.9348C160.962 49.068 142.777 42.5723 124.006 42.5496ZM38.1727 145.843L38.1277 145.671L38.0067 145.802C30.6412 153.727 25.3238 161.137 22.3612 167.45C19.4014 173.756 18.7794 178.994 20.8566 182.551C22.9187 186.097 27.6948 188.195 34.5985 188.823C41.5082 189.451 50.5777 188.609 61.2708 186.245L61.4452 186.206L61.3186 186.08C50.1505 174.959 42.1605 161.069 38.1727 145.843ZM77.6345 189.723L77.4421 189.782L77.607 189.897C91.2067 199.384 107.407 204.465 124.006 204.448C145.53 204.418 166.163 195.879 181.38 180.704C196.598 165.529 205.159 144.957 205.184 123.499C205.184 121.32 205.068 119.171 204.894 117.042L204.878 116.843L204.731 116.978C189.077 131.391 168.461 146.325 145.053 159.74C121.867 173.01 98.4612 183.392 77.6345 189.723ZM227.677 74.1758C228.752 70.1869 228.573 66.9136 227.145 64.4476L227.145 64.4473C225.073 60.8957 220.207 58.81 213.252 58.185C206.291 57.5593 197.207 58.3938 186.654 60.7147L186.479 60.7532L186.606 60.8794C197.824 72.0076 205.855 85.9225 209.868 101.184L209.913 101.355L210.034 101.226C219.373 91.2025 225.614 81.8997 227.677 74.1758Z" fill="url(#paint0_linear_35_13739)" stroke="url(#paint1_linear_35_13739)" stroke-width="0.195312"/>
</g>
<defs>
<linearGradient id="paint0_linear_35_13739" x1="12" y1="123.5" x2="236" y2="123.5" gradientUnits="userSpaceOnUse">
<stop offset="0.253125" stop-color="#590DA6"/>
<stop offset="1" stop-color="#D43F8D"/>
</linearGradient>
<linearGradient id="paint1_linear_35_13739" x1="12" y1="123.5" x2="236" y2="123.5" gradientUnits="userSpaceOnUse">
<stop offset="0.253125" stop-color="#590DA6"/>
<stop offset="1" stop-color="#D43F8D"/>
</linearGradient>
</defs>
</svg>
