<svg width="98" height="74" viewBox="0 0 98 74" fill="none" xmlns="http://www.w3.org/2000/svg">
<path d="M85.0239 37.7816L85.0224 37.8304L85.0606 37.8609C89.7628 41.6103 93.1179 45.1804 95.041 48.4194C96.9644 51.6587 97.4476 54.5524 96.4367 56.9635C95.6586 58.8099 94.0762 60.2378 91.7079 61.1958L91.7074 61.196C87.8622 62.7764 81.9525 63.0204 74.7861 62.097L74.738 62.0908L74.704 62.1255C73.4294 63.4236 72.0602 64.6254 70.6078 65.721C65.1285 69.8624 58.5912 72.3717 51.7504 72.9597C44.9096 73.5477 38.0439 72.1902 31.9456 69.0441C25.8473 65.8979 20.7649 61.0912 17.2849 55.1786C13.8048 49.266 12.069 42.4885 12.2775 35.628L12.279 35.5791L12.2408 35.5487C11.6651 35.0902 11.1038 34.631 10.5649 34.1749L10.5638 34.174C8.02264 32.0832 5.71555 29.7233 3.68292 27.1356C0.580377 23.0353 -0.377395 19.4067 0.864741 16.4462L0.864764 16.4461C1.87834 14.0258 4.28991 12.3495 7.96065 11.4744C11.631 10.5994 16.5444 10.53 22.5294 11.3117L22.5778 11.318L22.6119 11.2831C27.738 6.04201 34.3254 2.46766 41.5124 1.02752C48.6994 -0.412614 56.1515 0.348494 62.8943 3.21129C69.637 6.07409 75.3565 10.9053 79.3047 17.0732C83.253 23.2411 85.2463 30.4585 85.0239 37.7816ZM75.3216 16.5277L75.3215 16.5276C71.2302 11.1298 65.5929 7.10445 59.1573 4.98541C52.7217 2.86637 45.7917 2.75369 39.2863 4.66231C32.781 6.57092 27.0075 10.4107 22.7315 15.6724C18.4555 20.9341 15.879 27.3692 15.3436 34.1244L15.3394 34.1774L15.3816 34.2096C22.1863 39.4151 31.638 44.9528 43.1458 49.8327C53.9711 54.4229 64.7088 57.5594 73.5541 58.9156L73.6067 58.9236L73.642 58.8838C78.7685 53.097 81.7366 45.7177 82.0428 37.9975C82.3489 30.2773 79.9743 22.6918 75.3216 16.5277ZM20.0774 14.193L20.1878 14.0529L20.0103 14.0353C15.575 13.5951 11.8137 13.6974 8.99556 14.2997C6.18391 14.9006 4.28185 16.0061 3.61534 17.599C2.94883 19.1839 3.45551 21.2919 4.96258 23.7132C6.4728 26.1395 9.00219 28.9048 12.4323 31.8206L12.5679 31.9359L12.5923 31.7596C13.4805 25.3444 16.0644 19.2803 20.0774 14.193ZM15.4144 37.9553L15.2522 37.8378L15.2596 38.038C15.5104 44.8649 17.8585 51.4468 21.9847 56.8884C27.3383 63.9423 35.2739 68.5828 44.0511 69.7924C52.8284 71.002 61.7309 68.6819 68.8064 63.341C69.5247 62.7975 70.204 62.2235 70.8618 61.6361L71.0115 61.5024L70.8139 61.4671C62.1992 59.928 52.1823 56.8939 41.9726 52.5674C31.8653 48.2777 22.6539 43.1978 15.4144 37.9553ZM77.2265 59.2397L77.1164 59.3795L77.2934 59.3973C82.9069 59.9618 87.5247 59.6919 90.5895 58.4398C92.1755 57.7961 93.2229 56.9145 93.6883 55.8141L93.6884 55.8138C94.3544 54.2241 93.8209 52.0895 92.3006 49.6525C90.7769 47.21 88.2464 44.4382 84.8651 41.5573L84.7292 41.4415L84.705 41.6185C83.8268 48.0518 81.2448 54.1355 77.2265 59.2397Z" fill="url(#paint0_linear_35_13742)" stroke="url(#paint1_linear_35_13742)" stroke-width="0.195312"/>
<defs>
<linearGradient id="paint0_linear_35_13742" x1="20.894" y1="0.0248242" x2="76.4087" y2="73.3878" gradientUnits="userSpaceOnUse">
<stop offset="0.253125" stop-color="#590DA6"/>
<stop offset="1" stop-color="#D43F8D"/>
</linearGradient>
<linearGradient id="paint1_linear_35_13742" x1="20.894" y1="0.0248242" x2="76.4087" y2="73.3878" gradientUnits="userSpaceOnUse">
<stop offset="0.253125" stop-color="#590DA6"/>
<stop offset="1" stop-color="#D43F8D"/>
</linearGradient>
</defs>
</svg>
