<svg width="81" height="27" viewBox="0 0 81 27" fill="none" xmlns="http://www.w3.org/2000/svg">
<path fill-rule="evenodd" clip-rule="evenodd" d="M41.125 20C46.6478 20 51.125 15.5228 51.125 10C51.125 4.47715 46.6478 0 41.125 0C35.6022 0 31.125 4.47715 31.125 10C31.125 15.5228 35.6022 20 41.125 20ZM24.4976 9L24.4976 9.03125H10.1249L10.125 9C10.125 6.23858 7.88642 4 5.125 4C2.36358 4 0.125 6.23858 0.125 9C0.125 11.7614 2.36358 14 5.125 14C7.53291 14 9.54326 12.2979 10.0185 10.0312H24.5271C25.0555 19.2139 32.5946 26.5 41.831 26.5C51.0673 26.5 58.6064 19.2139 59.1348 10.0312H70.1065C70.5817 12.2979 72.5921 14 75 14C77.4079 14 79.4183 12.2979 79.8935 10.0312H80.875V9.03125H79.9999C80 9.02084 80 9.01042 80 9C80 6.23858 77.7614 4 75 4C72.2386 4 70 6.23858 70 9C70 9.01042 70 9.02084 70.0001 9.03125H59.1643L59.1644 9H58.1644C58.1644 18.1193 50.849 25.5 41.831 25.5C32.813 25.5 25.4976 18.1193 25.4976 9H24.4976Z" fill="url(#paint0_linear_35_14024)"/>
<defs>
<linearGradient id="paint0_linear_35_14024" x1="0.125" y1="13.25" x2="80.875" y2="13.25" gradientUnits="userSpaceOnUse">
<stop offset="0.253125" stop-color="#590DA6"/>
<stop offset="1" stop-color="#D43F8D"/>
</linearGradient>
</defs>
</svg>
