<svg width="295" height="67" viewBox="0 0 295 67" fill="none" xmlns="http://www.w3.org/2000/svg">
<path d="M14.688 32.512C12.2133 32.512 9.984 32.0853 8 31.232C6.03733 30.3787 4.43733 29.1947 3.2 27.68C1.984 26.1653 1.23733 24.4053 0.96 22.4H6.944C7.15733 23.4453 7.59467 24.352 8.256 25.12C8.93867 25.888 9.824 26.4747 10.912 26.88C12 27.2853 13.248 27.488 14.656 27.488C16.3413 27.488 17.7813 27.1893 18.976 26.592C20.1707 25.9733 21.088 25.1093 21.728 24C22.3893 22.8907 22.72 21.5573 22.72 20C22.72 18.4427 22.3893 17.1093 21.728 16C21.088 14.8907 20.1707 14.0373 18.976 13.44C17.7813 12.8213 16.3413 12.512 14.656 12.512C13.248 12.512 12 12.7147 10.912 13.12C9.84533 13.5253 8.97067 14.112 8.288 14.88C7.62667 15.6267 7.17867 16.5333 6.944 17.6H0.96C1.23733 15.5733 1.984 13.8133 3.2 12.32C4.43733 10.8053 6.03733 9.62133 8 8.768C9.984 7.91467 12.2133 7.488 14.688 7.488C17.4827 7.488 19.9253 8.01067 22.016 9.056C24.1067 10.1013 25.7387 11.5627 26.912 13.44C28.0853 15.3173 28.672 17.504 28.672 20C28.672 22.496 28.0853 24.6827 26.912 26.56C25.7387 28.4373 24.1067 29.8987 22.016 30.944C19.9253 31.9893 17.4827 32.512 14.688 32.512ZM25.44 22.016H10.656V17.984H25.44V22.016ZM37.1138 15.808H43.0658V32H37.1138V15.808ZM30.0418 13.76H50.1698V18.272H30.0418V13.76ZM68.5273 32L67.7273 25.376L68.5913 22.88L67.7273 20.416L68.5273 13.76H74.7033L73.5833 22.88L74.7033 32H68.5273ZM69.9993 22.88C69.6793 24.8213 69.0713 26.5173 68.1753 27.968C67.2793 29.3973 66.1486 30.5173 64.7833 31.328C63.4179 32.1173 61.8819 32.512 60.1753 32.512C58.3833 32.512 56.8046 32.1067 55.4393 31.296C54.0953 30.4853 53.0393 29.3653 52.2713 27.936C51.5033 26.4853 51.1193 24.8 51.1193 22.88C51.1193 20.96 51.5033 19.2853 52.2713 17.856C53.0393 16.4053 54.0953 15.2747 55.4393 14.464C56.8046 13.6533 58.3833 13.248 60.1753 13.248C61.8819 13.248 63.4179 13.6533 64.7833 14.464C66.1486 15.2533 67.2793 16.3627 68.1753 17.792C69.0926 19.2213 69.7006 20.9173 69.9993 22.88ZM57.1353 22.88C57.1353 23.8613 57.3379 24.736 57.7433 25.504C58.1486 26.2507 58.7033 26.848 59.4073 27.296C60.1326 27.7227 60.9646 27.936 61.9033 27.936C62.8419 27.936 63.7273 27.7227 64.5593 27.296C65.4126 26.848 66.1593 26.2507 66.7993 25.504C67.4393 24.736 67.9193 23.8613 68.2393 22.88C67.9193 21.8987 67.4393 21.0347 66.7993 20.288C66.1593 19.52 65.4126 18.9227 64.5593 18.496C63.7273 18.048 62.8419 17.824 61.9033 17.824C60.9646 17.824 60.1326 18.048 59.4073 18.496C58.7033 18.9227 58.1486 19.52 57.7433 20.288C57.3379 21.0347 57.1353 21.8987 57.1353 22.88ZM99.0683 13.76V32H93.1163V15.488L95.8363 18.208H81.2763L83.9963 15.488V32H78.0763V13.76H99.0683ZM124.264 13.76H130.216V32H124.264V13.76ZM102.92 32V13.76H108.808V30.496L106.952 27.776H113.736C114.632 27.776 115.325 27.5627 115.816 27.136C116.307 26.7093 116.552 26.1013 116.552 25.312C116.552 24.5227 116.307 23.9147 115.816 23.488C115.325 23.04 114.632 22.816 113.736 22.816H106.952V18.784H114.696C116.275 18.784 117.651 19.0613 118.824 19.616C119.997 20.1493 120.904 20.9173 121.544 21.92C122.205 22.9013 122.536 24.0533 122.536 25.376C122.536 26.6987 122.205 27.8613 121.544 28.864C120.904 29.8667 119.997 30.6453 118.824 31.2C117.672 31.7333 116.317 32 114.76 32H102.92ZM142.076 13.76H147.996V19.264L147.772 20.032V24.768L147.996 26.176V37.28H142.076V13.76ZM146.044 22.88C146.364 20.9173 146.972 19.2213 147.868 17.792C148.764 16.3627 149.895 15.2533 151.26 14.464C152.647 13.6533 154.183 13.248 155.868 13.248C157.66 13.248 159.228 13.6533 160.572 14.464C161.938 15.2747 163.004 16.4053 163.772 17.856C164.54 19.2853 164.924 20.96 164.924 22.88C164.924 24.8 164.54 26.4853 163.772 27.936C163.004 29.3653 161.938 30.4853 160.572 31.296C159.228 32.1067 157.66 32.512 155.868 32.512C154.162 32.512 152.626 32.1173 151.26 31.328C149.916 30.5173 148.796 29.3973 147.9 27.968C147.004 26.5173 146.386 24.8213 146.044 22.88ZM158.908 22.88C158.908 21.8987 158.706 21.0347 158.3 20.288C157.895 19.52 157.33 18.9227 156.604 18.496C155.9 18.048 155.09 17.824 154.172 17.824C153.234 17.824 152.338 18.048 151.484 18.496C150.631 18.9227 149.884 19.52 149.244 20.288C148.626 21.0347 148.146 21.8987 147.804 22.88C148.146 23.8613 148.626 24.736 149.244 25.504C149.884 26.2507 150.631 26.848 151.484 27.296C152.338 27.7227 153.234 27.936 154.172 27.936C155.09 27.936 155.9 27.7227 156.604 27.296C157.33 26.848 157.895 26.2507 158.3 25.504C158.706 24.736 158.908 23.8613 158.908 22.88ZM184.496 32L183.696 25.376L184.56 22.88L183.696 20.416L184.496 13.76H190.672L189.552 22.88L190.672 32H184.496ZM185.968 22.88C185.648 24.8213 185.04 26.5173 184.144 27.968C183.248 29.3973 182.117 30.5173 180.752 31.328C179.387 32.1173 177.851 32.512 176.144 32.512C174.352 32.512 172.773 32.1067 171.408 31.296C170.064 30.4853 169.008 29.3653 168.24 27.936C167.472 26.4853 167.088 24.8 167.088 22.88C167.088 20.96 167.472 19.2853 168.24 17.856C169.008 16.4053 170.064 15.2747 171.408 14.464C172.773 13.6533 174.352 13.248 176.144 13.248C177.851 13.248 179.387 13.6533 180.752 14.464C182.117 15.2533 183.248 16.3627 184.144 17.792C185.061 19.2213 185.669 20.9173 185.968 22.88ZM173.104 22.88C173.104 23.8613 173.307 24.736 173.712 25.504C174.117 26.2507 174.672 26.848 175.376 27.296C176.101 27.7227 176.933 27.936 177.872 27.936C178.811 27.936 179.696 27.7227 180.528 27.296C181.381 26.848 182.128 26.2507 182.768 25.504C183.408 24.736 183.888 23.8613 184.208 22.88C183.888 21.8987 183.408 21.0347 182.768 20.288C182.128 19.52 181.381 18.9227 180.528 18.496C179.696 18.048 178.811 17.824 177.872 17.824C176.933 17.824 176.101 18.048 175.376 18.496C174.672 18.9227 174.117 19.52 173.712 20.288C173.307 21.0347 173.104 21.8987 173.104 22.88ZM205.343 32.512C202.825 32.512 200.66 32.032 198.847 31.072C197.055 30.112 195.679 28.736 194.719 26.944C193.78 25.152 193.311 22.9867 193.311 20.448C193.311 16.672 194.335 13.696 196.383 11.52C198.431 9.32267 201.375 8.064 205.215 7.744C206.772 7.616 208.063 7.50933 209.087 7.424C210.132 7.31733 210.975 7.22133 211.615 7.136C212.276 7.02933 212.841 6.92266 213.311 6.816C213.78 6.70933 214.228 6.58133 214.655 6.432V11.328C214.185 11.4987 213.599 11.6587 212.895 11.808C212.212 11.936 211.337 12.0427 210.271 12.128C209.225 12.192 207.924 12.2667 206.367 12.352C203.593 12.48 201.545 13.216 200.223 14.56C198.9 15.8827 198.239 17.8133 198.239 20.352V21.12L198.047 20.672C198.452 19.5627 199.081 18.6133 199.935 17.824C200.809 17.0133 201.855 16.3947 203.071 15.968C204.308 15.5413 205.641 15.328 207.071 15.328C208.927 15.328 210.548 15.68 211.935 16.384C213.321 17.0667 214.399 18.0373 215.167 19.296C215.956 20.5333 216.351 21.9947 216.351 23.68C216.351 25.4507 215.892 26.9973 214.975 28.32C214.057 29.6427 212.777 30.6773 211.135 31.424C209.492 32.1493 207.561 32.512 205.343 32.512ZM205.503 28.032C206.484 28.032 207.337 27.8613 208.062 27.52C208.788 27.1573 209.343 26.656 209.727 26.016C210.132 25.376 210.335 24.6187 210.335 23.744C210.335 22.8907 210.132 22.144 209.727 21.504C209.343 20.864 208.788 20.3733 208.062 20.032C207.337 19.6693 206.484 19.488 205.503 19.488C204.137 19.488 202.921 19.8507 201.855 20.576C200.788 21.28 199.988 22.2613 199.455 23.52C199.753 24.8853 200.447 25.984 201.535 26.816C202.644 27.6267 203.967 28.032 205.503 28.032ZM229.95 32.512C227.646 32.512 225.63 32.1067 223.902 31.296C222.174 30.4853 220.83 29.3547 219.87 27.904C218.91 26.4533 218.43 24.7787 218.43 22.88C218.43 20.96 218.91 19.2853 219.87 17.856C220.83 16.4053 222.174 15.2747 223.902 14.464C225.652 13.6533 227.668 13.248 229.95 13.248C232.254 13.248 234.27 13.6533 235.998 14.464C237.748 15.2747 239.102 16.4053 240.062 17.856C241.022 19.2853 241.502 20.96 241.502 22.88C241.502 24.8 241.022 26.4853 240.062 27.936C239.102 29.3653 237.748 30.4853 235.998 31.296C234.27 32.1067 232.254 32.512 229.95 32.512ZM229.95 28.032C231.124 28.032 232.116 27.8293 232.926 27.424C233.758 26.9973 234.388 26.4 234.814 25.632C235.262 24.864 235.486 23.9467 235.486 22.88C235.486 21.8133 235.262 20.896 234.814 20.128C234.388 19.36 233.758 18.7733 232.926 18.368C232.116 17.9413 231.124 17.728 229.95 17.728C228.82 17.728 227.838 17.9413 227.006 18.368C226.174 18.7733 225.534 19.36 225.086 20.128C224.638 20.896 224.414 21.8133 224.414 22.88C224.414 23.9467 224.638 24.864 225.086 25.632C225.534 26.4 226.174 26.9973 227.006 27.424C227.838 27.8293 228.82 28.032 229.95 28.032ZM249.426 15.808H255.378V32H249.426V15.808ZM242.354 13.76H262.482V18.272H242.354V13.76ZM286.202 13.76H292.154V32H286.202V13.76ZM264.858 32V13.76H270.746V30.496L268.89 27.776H275.674C276.57 27.776 277.263 27.5627 277.754 27.136C278.244 26.7093 278.49 26.1013 278.49 25.312C278.49 24.5227 278.244 23.9147 277.754 23.488C277.263 23.04 276.57 22.816 275.674 22.816H268.89V18.784H276.634C278.212 18.784 279.588 19.0613 280.762 19.616C281.935 20.1493 282.842 20.9173 283.482 21.92C284.143 22.9013 284.474 24.0533 284.474 25.376C284.474 26.6987 284.143 27.8613 283.482 28.864C282.842 29.8667 281.935 30.6453 280.762 31.2C279.61 31.7333 278.255 32 276.698 32H264.858Z" fill="white"/>
<path fill-rule="evenodd" clip-rule="evenodd" d="M149 60C154.523 60 159 55.5228 159 50C159 44.4772 154.523 40 149 40C143.477 40 139 44.4772 139 50C139 55.5228 143.477 60 149 60ZM131.623 49L131.623 49.0312H11.9999L12 49C12 46.2386 9.76142 44 7 44C4.23858 44 2 46.2386 2 49L2.0001 49.0312H2V50.0312H2.10647C2.58174 52.2979 4.5921 54 7 54C9.40791 54 11.4183 52.2979 11.8935 50.0312H131.652C132.181 59.2139 139.72 66.5 148.956 66.5C158.192 66.5 165.731 59.2139 166.26 50.0312H283.106C283.582 52.2979 285.592 54 288 54C290.408 54 292.418 52.2979 292.894 50.0312H293V49.0312C293 49.0208 293 49.0104 293 49C293 46.2386 290.761 44 288 44C285.239 44 283 46.2386 283 49C283 49.0104 283 49.0208 283 49.0312H166.289L166.289 49H165.289C165.289 58.1193 157.974 65.5 148.956 65.5C139.938 65.5 132.623 58.1193 132.623 49H131.623Z" fill="url(#paint0_linear_35_14041)"/>
<defs>
<linearGradient id="paint0_linear_35_14041" x1="2" y1="53.25" x2="293" y2="53.25" gradientUnits="userSpaceOnUse">
<stop offset="0.253125" stop-color="#590DA6"/>
<stop offset="1" stop-color="#D43F8D"/>
</linearGradient>
</defs>
</svg>
