<svg width="25" height="25" viewBox="0 0 25 25" fill="none" xmlns="http://www.w3.org/2000/svg">
<path d="M18.8171 1.25896L18.963 1.54877L20.054 4.45249C20.1393 4.67979 20.3192 4.86163 20.5484 4.94687L23.3519 6.00001C24.5831 6.46029 25.2442 7.77483 24.9165 9.01928L24.837 9.26552L23.5337 12.1503C23.4836 12.2603 23.4576 12.3798 23.4576 12.5007C23.4576 12.6216 23.4836 12.7411 23.5337 12.8511L24.7726 15.5787C25.0318 16.1504 25.0699 16.7979 24.8796 17.3961C24.6893 17.9943 24.284 18.5008 23.7421 18.8177L23.4523 18.9635L20.5484 20.0546C20.4359 20.0973 20.3338 20.1634 20.2489 20.2487C20.164 20.3339 20.0982 20.4363 20.0559 20.5489L19.0027 23.3523C18.7822 23.9408 18.3512 24.4267 17.7931 24.7157C17.2349 25.0047 16.5894 25.0764 15.9814 24.9168L15.7352 24.8373L12.8503 23.5341C12.7403 23.484 12.6208 23.458 12.4998 23.458C12.3789 23.458 12.2594 23.484 12.1494 23.5341L9.42361 24.7729C8.85185 25.0321 8.20432 25.0702 7.60609 24.8799C7.00786 24.6896 6.50138 24.2844 6.18447 23.7425L6.03862 23.4527L4.94565 20.5489C4.90297 20.4364 4.8368 20.3343 4.75155 20.2494C4.6663 20.1645 4.56392 20.0987 4.45125 20.0565L1.64779 19.0033C1.0592 18.7828 0.573355 18.3518 0.284314 17.7937C-0.00472656 17.2356 -0.076406 16.5901 0.083153 15.9822L0.162711 15.7359L1.46784 12.8511C1.51787 12.7411 1.54376 12.6216 1.54376 12.5007C1.54376 12.3798 1.51787 12.2604 1.46784 12.1503L0.227115 9.42463C-0.0322472 8.85311 -0.0706583 8.20577 0.119297 7.6076C0.309253 7.00942 0.714103 6.50283 1.25568 6.18564L1.5455 6.03979L4.45125 4.94497C4.56411 4.90252 4.6666 4.83645 4.75186 4.7512C4.83712 4.66594 4.90319 4.56345 4.94565 4.4506L5.99884 1.64726C6.21932 1.05911 6.65006 0.573592 7.20778 0.284601C7.76549 -0.0043904 8.41056 -0.0763285 9.01824 0.0826972L9.26449 0.162251L12.1494 1.46732C12.2595 1.51735 12.379 1.54324 12.4998 1.54324C12.6207 1.54324 12.7402 1.51735 12.8503 1.46732L15.578 0.228546C16.1495 -0.0308035 16.7969 -0.0692129 17.3951 0.120734C17.9933 0.310681 18.4999 0.717407 18.8171 1.25896Z" fill="url(#paint0_linear_35_14097)"/>
<defs>
<linearGradient id="paint0_linear_35_14097" x1="2.32831e-08" y1="12.5" x2="37.6838" y2="12.5" gradientUnits="userSpaceOnUse">
<stop stop-color="#D33F8D"/>
<stop offset="1" stop-color="white"/>
</linearGradient>
</defs>
</svg>
