<svg width="1579" height="291" viewBox="0 0 1579 291" fill="none" xmlns="http://www.w3.org/2000/svg">
<path d="M118.641 128.764C103.88 128.764 90.9237 126.081 79.7712 120.716C68.7281 115.351 60.0904 107.85 53.8582 98.2151C47.7353 88.5797 44.6738 77.302 44.6738 64.3818C44.6738 51.4617 47.7353 40.1839 53.8582 30.5485C60.0904 20.9131 68.7281 13.4129 79.7712 8.04772C90.9237 2.68257 103.88 0 118.641 0C133.401 0 146.303 2.68257 157.346 8.04772C168.499 13.4129 177.137 20.9131 183.259 30.5485C189.492 40.1839 192.608 51.4617 192.608 64.3818C192.608 77.302 189.492 88.5797 183.259 98.2151C177.137 107.85 168.499 115.351 157.346 120.716C146.303 126.081 133.401 128.764 118.641 128.764ZM118.641 94.7661C125.966 94.7661 132.253 93.5617 137.502 91.1528C142.859 88.6345 146.959 85.1307 149.802 80.6415C152.645 76.0428 154.066 70.6229 154.066 64.3818C154.066 58.1407 152.645 52.7756 149.802 48.2864C146.959 43.6877 142.859 40.1839 137.502 37.775C132.253 35.2567 125.966 33.9975 118.641 33.9975C111.315 33.9975 104.974 35.2567 99.6161 37.775C94.3678 40.1839 90.3224 43.6877 87.4796 48.2864C84.6368 52.7756 83.2154 58.1407 83.2154 64.3818C83.2154 70.6229 84.6368 76.0428 87.4796 80.6415C90.3224 85.1307 94.3678 88.6345 99.6161 91.1528C104.974 93.5617 111.315 94.7661 118.641 94.7661Z" fill="#160F20"/>
<path d="M248.52 125.972V2.79206H286.406V95.9158L276.565 87.868L342.004 2.79206H382.021L283.125 125.972H248.52ZM307.398 68.3236L335.444 45.6585L383.826 125.972H340.528L307.398 68.3236Z" fill="#160F20"/>
<path d="M453.701 128.764C438.941 128.764 425.984 126.081 414.832 120.716C403.789 115.351 395.151 107.85 388.919 98.2151C382.796 88.5797 379.734 77.302 379.734 64.3818C379.734 51.4617 382.796 40.1839 388.919 30.5485C395.151 20.9131 403.789 13.4129 414.832 8.04772C425.984 2.68257 438.941 0 453.701 0C468.462 0 481.364 2.68257 492.407 8.04772C503.559 13.4129 512.197 20.9131 518.32 30.5485C524.552 40.1839 527.668 51.4617 527.668 64.3818C527.668 77.302 524.552 88.5797 518.32 98.2151C512.197 107.85 503.559 115.351 492.407 120.716C481.364 126.081 468.462 128.764 453.701 128.764ZM453.701 94.7661C461.027 94.7661 467.314 93.5617 472.562 91.1528C477.92 88.6345 482.02 85.1307 484.863 80.6415C487.705 76.0428 489.127 70.6229 489.127 64.3818C489.127 58.1407 487.705 52.7756 484.863 48.2864C482.02 43.6877 477.92 40.1839 472.562 37.775C467.314 35.2567 461.027 33.9975 453.701 33.9975C446.376 33.9975 440.034 35.2567 434.677 37.775C429.428 40.1839 425.383 43.6877 422.54 48.2864C419.697 52.7756 418.276 58.1407 418.276 64.3818C418.276 70.6229 419.697 76.0428 422.54 80.6415C425.383 85.1307 429.428 88.6345 434.677 91.1528C440.034 93.5617 446.376 94.7661 453.701 94.7661Z" fill="#160F20"/>
<path d="M728.532 2.79206V125.972H692.122V16.9166L699.667 17.7378L655.221 125.972H617.171L572.561 18.0663L580.106 17.0809V125.972H543.86V2.79206H602.739L643.248 105.77H629.308L669.489 2.79206H728.532Z" fill="#160F20"/>
<path d="M883.007 2.79206V125.972H844.793V19.3802L862.014 36.6254H770.662L787.883 19.3802V125.972H749.669V2.79206H883.007Z" fill="#160F20"/>
<path d="M930.956 103.799V73.2507H1015.26V103.799H930.956ZM999.018 2.79206L1054.12 125.972H1013.29L968.677 19.3802H979.01L934.236 125.972H893.562L948.504 2.79206H999.018Z" fill="#160F20"/>
<path d="M1064.55 2.79206H1102.76V125.972H1064.55V2.79206ZM1160.33 2.79206H1198.54V125.972H1160.33V2.79206ZM1086.03 46.3155H1175.75V80.1488H1086.03V46.3155Z" fill="#160F20"/>
<path d="M1219.91 125.972V2.79206H1257.63V105.442L1247.46 103.142L1311.92 2.79206H1361.77V125.972H1324.05V21.0226L1334.06 23.322L1268.29 125.972H1219.91Z" fill="#160F20"/>
<path d="M1383.11 125.972V2.79206H1420.83V105.442L1410.67 103.142L1475.12 2.79206H1524.98V125.972H1487.26V21.0226L1497.26 23.322L1431.5 125.972H1383.11Z" fill="#160F20"/>
<path d="M0 247.805H38.7056C39.1429 250.652 40.5097 253.17 42.8057 255.36C45.2112 257.44 48.4366 259.083 52.4821 260.287C56.5276 261.382 61.2838 261.93 66.7507 261.93C74.295 261.93 80.1446 261.054 84.2994 259.302C88.5636 257.55 90.6957 254.867 90.6957 251.254C90.6957 248.736 89.493 246.71 87.0876 245.177C84.6821 243.535 79.9259 242.44 72.819 241.892L51.1701 240.086C33.4574 238.772 20.6102 234.94 12.6285 228.589C4.75619 222.129 0.820033 213.479 0.820033 202.639C0.820033 193.77 3.38947 186.38 8.52835 180.467C13.6672 174.445 20.8288 169.901 30.0132 166.835C39.1976 163.769 50.022 162.236 62.4866 162.236C74.5137 162.236 85.1741 163.934 94.4679 167.328C103.871 170.722 111.306 175.54 116.773 181.781C122.349 187.912 125.41 195.084 125.957 203.296H87.2516C86.8142 200.887 85.5568 198.807 83.4794 197.055C81.5113 195.194 78.6685 193.77 74.9511 192.785C71.2336 191.799 66.8054 191.307 61.6665 191.307C54.8876 191.307 49.4754 192.128 45.4299 193.77C41.4937 195.413 39.5256 197.876 39.5256 201.161C39.5256 203.57 40.6737 205.541 42.9698 207.074C45.3752 208.607 49.7487 209.647 56.0903 210.194L79.8713 212.165C91.6797 213.041 101.192 214.902 108.408 217.749C115.734 220.487 121.037 224.264 124.317 229.082C127.597 233.79 129.237 239.757 129.237 246.984C129.237 255.743 126.613 263.463 121.365 270.142C116.117 276.711 108.736 281.857 99.224 285.58C89.821 289.193 78.7779 291 66.0947 291C53.0835 291 41.6577 289.193 31.8173 285.58C21.9769 281.967 14.2686 276.93 8.69235 270.47C3.11613 263.901 0.218676 256.346 0 247.805Z" fill="#160F20"/>
<path d="M145.379 165.028H183.593V288.208H145.379V165.028ZM241.159 165.028H279.373V288.208H241.159V165.028ZM166.864 208.552H256.576V242.385H166.864V208.552Z" fill="#160F20"/>
<path d="M369.62 291C354.859 291 341.903 288.317 330.75 282.952C319.707 277.587 311.069 270.087 304.837 260.452C298.714 250.816 295.653 239.538 295.653 226.618C295.653 213.698 298.714 202.42 304.837 192.785C311.069 183.15 319.707 175.649 330.75 170.284C341.903 164.919 354.859 162.236 369.62 162.236C384.38 162.236 397.282 164.919 408.325 170.284C419.478 175.649 428.116 183.15 434.238 192.785C440.471 202.42 443.587 213.698 443.587 226.618C443.587 239.538 440.471 250.816 434.238 260.452C428.116 270.087 419.478 277.587 408.325 282.952C397.282 288.317 384.38 291 369.62 291ZM369.62 257.002C376.945 257.002 383.232 255.798 388.481 253.389C393.838 250.871 397.938 247.367 400.781 242.878C403.624 238.279 405.045 232.859 405.045 226.618C405.045 220.377 403.624 215.012 400.781 210.523C397.938 205.924 393.838 202.42 388.481 200.011C383.232 197.493 376.945 196.234 369.62 196.234C362.294 196.234 355.953 197.493 350.595 200.011C345.347 202.42 341.301 205.924 338.459 210.523C335.616 215.012 334.194 220.377 334.194 226.618C334.194 232.859 335.616 238.279 338.459 242.878C341.301 247.367 345.347 250.871 350.595 253.389C355.953 255.798 362.294 257.002 369.62 257.002Z" fill="#160F20"/>
<path d="M523.085 165.028C537.846 165.028 550.748 167.602 561.791 172.748C572.943 177.784 581.581 184.901 587.704 194.099C593.936 203.296 597.052 214.136 597.052 226.618C597.052 238.991 593.936 249.831 587.704 259.138C581.581 268.335 572.943 275.507 561.791 280.653C550.748 285.69 537.846 288.208 523.085 288.208H459.779V165.028H523.085ZM497.664 271.62L480.115 254.21H526.037C532.707 254.21 538.447 253.115 543.258 250.926C548.178 248.626 551.95 245.396 554.574 241.236C557.199 237.075 558.511 232.202 558.511 226.618C558.511 220.925 557.199 216.052 554.574 212.001C551.95 207.84 548.178 204.665 543.258 202.475C538.447 200.176 532.707 199.026 526.037 199.026H480.115L497.664 181.617V271.62Z" fill="#160F20"/>
<path d="M639.62 218.242H682.589C687.4 218.242 691.118 217.147 693.742 214.957C696.475 212.767 697.842 209.592 697.842 205.431C697.842 201.271 696.475 198.095 693.742 195.905C691.118 193.716 687.4 192.621 682.589 192.621H634.207L651.428 174.883V288.208H613.215V165.028H688.33C697.842 165.028 706.206 166.726 713.423 170.12C720.639 173.514 726.27 178.222 730.315 184.244C734.361 190.267 736.384 197.329 736.384 205.431C736.384 213.315 734.361 220.322 730.315 226.454C726.27 232.476 720.639 237.184 713.423 240.579C706.206 243.863 697.842 245.506 688.33 245.506H639.62V218.242ZM656.02 230.56H698.498L740.812 288.208H697.022L656.02 230.56Z" fill="#160F20"/>
<path d="M822.4 291C807.639 291 794.683 288.317 783.53 282.952C772.487 277.587 763.85 270.087 757.617 260.452C751.494 250.816 748.433 239.538 748.433 226.618C748.433 213.698 751.494 202.42 757.617 192.785C763.85 183.15 772.487 175.649 783.53 170.284C794.683 164.919 807.639 162.236 822.4 162.236C837.161 162.236 850.062 164.919 861.106 170.284C872.258 175.649 880.896 183.15 887.019 192.785C893.251 202.42 896.367 213.698 896.367 226.618C896.367 239.538 893.251 250.816 887.019 260.452C880.896 270.087 872.258 277.587 861.106 282.952C850.062 288.317 837.161 291 822.4 291ZM822.4 257.002C829.726 257.002 836.013 255.798 841.261 253.389C846.618 250.871 850.719 247.367 853.561 242.878C856.404 238.279 857.825 232.859 857.825 226.618C857.825 220.377 856.404 215.012 853.561 210.523C850.719 205.924 846.618 202.42 841.261 200.011C836.013 197.493 829.726 196.234 822.4 196.234C815.074 196.234 808.733 197.493 803.375 200.011C798.127 202.42 794.082 205.924 791.239 210.523C788.396 215.012 786.975 220.377 786.975 226.618C786.975 232.859 788.396 238.279 791.239 242.878C794.082 247.367 798.127 250.871 803.375 253.389C808.733 255.798 815.074 257.002 822.4 257.002Z" fill="#160F20"/>
<path d="M982.918 165.028C993.633 165.028 1002.82 166.835 1010.47 170.448C1018.23 174.062 1024.14 179.153 1028.18 185.723C1032.23 192.183 1034.25 199.847 1034.25 208.716C1034.25 217.476 1032.23 225.14 1028.18 231.71C1024.14 238.279 1018.23 243.371 1010.47 246.984C1002.82 250.597 993.633 252.404 982.918 252.404H930.272V222.184H980.458C985.268 222.184 988.986 220.979 991.61 218.57C994.344 216.162 995.71 212.877 995.71 208.716C995.71 204.336 994.344 200.997 991.61 198.698C988.986 196.398 985.268 195.248 980.458 195.248H933.552L950.772 177.839V288.208H912.559V165.028H982.918Z" fill="#160F20"/>
<path d="M1048.25 290.015C1044.42 290.015 1040.92 289.139 1037.75 287.387C1034.58 285.525 1032.07 283.007 1030.21 279.832C1028.46 276.656 1027.59 273.153 1027.59 269.32C1027.59 265.379 1028.46 261.875 1030.21 258.809C1032.07 255.634 1034.58 253.17 1037.75 251.418C1040.92 249.557 1044.42 248.626 1048.25 248.626C1052.19 248.626 1055.68 249.557 1058.75 251.418C1061.92 253.17 1064.38 255.634 1066.13 258.809C1067.99 261.875 1068.91 265.379 1068.91 269.32C1068.91 273.153 1067.99 276.656 1066.13 279.832C1064.38 283.007 1061.92 285.525 1058.75 287.387C1055.68 289.139 1052.19 290.015 1048.25 290.015Z" fill="#160F20"/>
<path d="M1219.81 235.816C1218.5 246.765 1214.67 256.4 1208.33 264.722C1202.09 273.043 1193.79 279.503 1183.4 284.102C1173.12 288.701 1161.31 291 1147.97 291C1133.54 291 1120.91 288.317 1110.09 282.952C1099.26 277.587 1090.84 270.087 1084.83 260.452C1078.82 250.816 1075.81 239.538 1075.81 226.618C1075.81 213.698 1078.82 202.42 1084.83 192.785C1090.84 183.15 1099.26 175.649 1110.09 170.284C1120.91 164.919 1133.54 162.236 1147.97 162.236C1161.31 162.236 1173.12 164.536 1183.4 169.134C1193.79 173.733 1202.09 180.193 1208.33 188.515C1214.67 196.727 1218.5 206.362 1219.81 217.421H1181.43C1180.34 212.713 1178.31 208.716 1175.36 205.431C1172.52 202.037 1168.8 199.464 1164.21 197.712C1159.62 195.851 1154.2 194.92 1147.97 194.92C1140.97 194.92 1134.96 196.179 1129.93 198.698C1124.9 201.216 1121.02 204.884 1118.29 209.702C1115.55 214.41 1114.19 220.049 1114.19 226.618C1114.19 233.188 1115.55 238.827 1118.29 243.535C1121.02 248.243 1124.9 251.911 1129.93 254.539C1134.96 257.057 1140.97 258.316 1147.97 258.316C1154.2 258.316 1159.62 257.495 1164.21 255.853C1168.8 254.101 1172.52 251.528 1175.36 248.134C1178.31 244.739 1180.34 240.633 1181.43 235.816H1219.81Z" fill="#160F20"/>
<path d="M1304.17 291C1289.41 291 1276.45 288.317 1265.3 282.952C1254.26 277.587 1245.62 270.087 1239.39 260.452C1233.26 250.816 1230.2 239.538 1230.2 226.618C1230.2 213.698 1233.26 202.42 1239.39 192.785C1245.62 183.15 1254.26 175.649 1265.3 170.284C1276.45 164.919 1289.41 162.236 1304.17 162.236C1318.93 162.236 1331.83 164.919 1342.88 170.284C1354.03 175.649 1362.67 183.15 1368.79 192.785C1375.02 202.42 1378.14 213.698 1378.14 226.618C1378.14 239.538 1375.02 250.816 1368.79 260.452C1362.67 270.087 1354.03 277.587 1342.88 282.952C1331.83 288.317 1318.93 291 1304.17 291ZM1304.17 257.002C1311.5 257.002 1317.78 255.798 1323.03 253.389C1328.39 250.871 1332.49 247.367 1335.33 242.878C1338.17 238.279 1339.6 232.859 1339.6 226.618C1339.6 220.377 1338.17 215.012 1335.33 210.523C1332.49 205.924 1328.39 202.42 1323.03 200.011C1317.78 197.493 1311.5 196.234 1304.17 196.234C1296.84 196.234 1290.5 197.493 1285.14 200.011C1279.9 202.42 1275.85 205.924 1273.01 210.523C1270.17 215.012 1268.74 220.377 1268.74 226.618C1268.74 232.859 1270.17 238.279 1273.01 242.878C1275.85 247.367 1279.9 250.871 1285.14 253.389C1290.5 255.798 1296.84 257.002 1304.17 257.002Z" fill="#160F20"/>
<path d="M1579 165.028V288.208H1542.59V179.153L1550.13 179.974L1505.69 288.208H1467.64L1423.03 180.303L1430.57 179.317V288.208H1394.33V165.028H1453.21L1493.72 268.007H1479.78L1519.96 165.028H1579Z" fill="#160F20"/>
</svg>
