<svg width="1436" height="501" viewBox="0 0 1436 501" fill="none" xmlns="http://www.w3.org/2000/svg">
<path d="M-2 251.383C-2 251.383 251.35 -64.652 368 51.0307C432.003 114.504 370.63 201.309 422 275.365C466.228 339.125 504.616 378.881 580.5 395.276C727.085 426.946 733.665 210.22 864.5 136.967C975.846 74.6257 1092.91 -62.6182 1175 35.0425C1239.94 112.302 1175 260.308 1142.5 291.353C1110 322.398 925.959 331.626 935 250.316C941.5 191.859 1007 175.871 1050.5 202.918C1143.31 260.628 1022.7 415.911 1114.5 475.217C1213.32 539.056 1312.29 467.685 1405 395.276C1417.22 385.736 1435 369.295 1435 369.295" stroke="#707070" stroke-width="2" stroke-dasharray="10 10"/>
</svg>
