<svg width="50" height="50" viewBox="0 0 50 50" fill="none" xmlns="http://www.w3.org/2000/svg">
<path d="M25 11C26.9339 11 28.7885 11.7629 30.156 13.121C31.5234 14.479 32.2917 16.3208 32.2917 18.2414C32.2917 20.1619 31.5234 22.0038 30.156 23.3618C28.7885 24.7198 26.9339 25.4828 25 25.4828C23.0661 25.4828 21.2115 24.7198 19.844 23.3618C18.4766 22.0038 17.7083 20.1619 17.7083 18.2414C17.7083 16.3208 18.4766 14.479 19.844 13.121C21.2115 11.7629 23.0661 11 25 11ZM10.4167 16.1724C11.5833 16.1724 12.6667 16.4828 13.6042 17.0414C13.2917 20 14.1667 22.9379 15.9583 25.2345C14.9167 27.2207 12.8333 28.5862 10.4167 28.5862C8.75906 28.5862 7.16935 27.9323 5.99725 26.7682C4.82515 25.6042 4.16667 24.0255 4.16667 22.3793C4.16667 20.7331 4.82515 19.1544 5.99725 17.9904C7.16935 16.8264 8.75906 16.1724 10.4167 16.1724ZM39.5833 16.1724C41.2409 16.1724 42.8306 16.8264 44.0028 17.9904C45.1749 19.1544 45.8333 20.7331 45.8333 22.3793C45.8333 24.0255 45.1749 25.6042 44.0028 26.7682C42.8306 27.9323 41.2409 28.5862 39.5833 28.5862C37.1667 28.5862 35.0833 27.2207 34.0417 25.2345C35.8581 22.9057 36.7012 19.9714 36.3958 17.0414C37.3333 16.4828 38.4167 16.1724 39.5833 16.1724ZM11.4583 37.3793C11.4583 33.0966 17.5208 29.6207 25 29.6207C32.4792 29.6207 38.5417 33.0966 38.5417 37.3793V41H11.4583V37.3793ZM0 41V37.8966C0 35.0207 3.9375 32.6 9.27083 31.8966C8.04167 33.3034 7.29167 35.2483 7.29167 37.3793V41H0ZM50 41H42.7083V37.3793C42.7083 35.2483 41.9583 33.3034 40.7292 31.8966C46.0625 32.6 50 35.0207 50 37.8966V41Z" fill="url(#paint0_linear_35_14466)"/>
<defs>
<linearGradient id="paint0_linear_35_14466" x1="25" y1="11" x2="25" y2="41" gradientUnits="userSpaceOnUse">
<stop stop-color="#D43F8D"/>
<stop offset="1" stop-color="#590DA6"/>
</linearGradient>
</defs>
</svg>
