<svg width="430" height="2191" viewBox="0 0 430 2191" fill="none" xmlns="http://www.w3.org/2000/svg">
<path d="M231.329 2190C231.329 2190 -65.7049 1804.07 43.0228 1626.37C102.68 1528.88 184.266 1622.37 253.87 1544.12C313.797 1476.74 351.163 1418.26 366.572 1302.67C396.338 1079.38 192.642 1069.35 123.793 870.05C65.1994 700.435 -63.7934 522.107 27.9959 397.061C100.61 298.138 239.719 397.061 268.897 446.569C298.075 496.077 306.749 776.429 230.327 762.656C175.384 752.755 160.357 652.978 185.779 586.714C240.019 445.331 385.967 629.06 441.707 489.222C501.708 338.692 434.627 187.929 366.572 46.6994C357.606 28.092 342.153 1.00001 342.153 1.00001" stroke="#3A3A3A" stroke-width="2" stroke-dasharray="10 10"/>
</svg>
