<svg width="1440" height="501" viewBox="0 0 1440 501" fill="none" xmlns="http://www.w3.org/2000/svg">
<path d="M-19 251.383C-19 251.383 238.758 -64.652 357.437 51.0307C422.554 114.504 360.113 201.309 412.376 275.365C457.374 339.125 496.43 378.881 573.634 395.276C722.77 426.946 729.463 210.22 862.575 136.967C975.858 74.6257 1094.96 -62.6182 1178.48 35.0425C1244.55 112.302 1178.48 260.308 1145.41 291.353C1112.35 322.398 925.103 331.626 934.301 250.316C940.914 191.859 1007.55 175.871 1051.81 202.918C1146.24 260.628 1023.53 415.911 1116.92 475.217C1217.46 539.056 1318.15 467.685 1412.48 395.276C1424.91 385.736 1443 369.295 1443 369.295" stroke="#3A3A3A" stroke-width="2" stroke-dasharray="10 10"/>
</svg>
