<svg width="247" height="247" viewBox="0 0 247 247" fill="none" xmlns="http://www.w3.org/2000/svg">
<g opacity="0.5">
<path d="M233.742 60.6272C227.244 49.4812 208.08 47.3444 179.675 54.5633C165.746 43.389 148.76 36.6653 130.936 35.2713C113.112 33.8773 95.281 37.878 79.7748 46.7502C64.2686 55.6223 51.8089 68.953 44.0251 84.9989C36.2413 101.045 33.4957 119.059 36.1473 136.686C15.5054 157.563 7.72365 175.186 14.2503 186.371C18.2377 193.214 26.8015 196.679 39.3527 196.679C47.3811 196.535 55.3703 195.525 63.1807 193.667C64.8606 193.291 66.5792 192.878 68.317 192.435C81.3654 202.904 97.1169 209.481 113.754 211.408C130.391 213.335 147.236 210.534 162.344 203.327C177.453 196.12 190.209 184.801 199.142 170.676C208.075 156.551 212.82 140.197 212.83 123.499C212.836 119.076 212.514 114.659 211.864 110.284C224.193 97.7709 232.439 85.9511 235.036 76.143C236.667 70.1176 236.223 64.9008 233.742 60.6272ZM124.006 42.6473C142.754 42.67 160.918 49.1579 175.415 61.0104C189.911 72.863 199.849 89.3502 203.542 107.675C187.93 122.777 166.081 138.938 141.278 153.145C114.911 168.247 90.2913 178.411 70.2094 183.945C57.9164 173.059 49.2331 158.704 45.311 142.785C41.3889 126.865 42.4132 110.133 48.2481 94.8078C54.0831 79.4822 64.453 66.2868 77.9827 56.9713C91.5125 47.6558 107.563 42.6603 124.006 42.6473ZM20.941 182.502C16.8378 175.475 23.3547 161.711 38.0783 145.868C42.0704 161.111 50.0692 175.016 61.2497 186.15C39.8741 190.875 25.0154 189.509 20.941 182.502ZM124.006 204.351C107.427 204.367 91.2462 199.292 77.6629 189.817C98.4979 183.483 121.911 173.098 145.101 159.825C168.514 146.407 189.137 131.469 204.797 117.05C204.971 119.177 205.087 121.324 205.087 123.499C205.061 144.931 196.511 165.478 181.312 180.635C166.112 195.792 145.504 204.32 124.006 204.351ZM227.582 74.1506C225.526 81.8508 219.298 91.1391 209.962 101.159C205.945 85.8808 197.905 71.9505 186.675 60.8101C207.771 56.1707 222.967 57.4797 227.061 64.4965C228.47 66.9317 228.654 70.1754 227.582 74.1506Z" fill="url(#paint0_linear_35_14128)"/>
</g>
<defs>
<linearGradient id="paint0_linear_35_14128" x1="124" y1="35" x2="124" y2="212" gradientUnits="userSpaceOnUse">
<stop stop-color="#D43F8D"/>
<stop offset="1" stop-color="#590DA6"/>
</linearGradient>
</defs>
</svg>
