<svg width="517" height="28" viewBox="0 0 517 28" fill="none" xmlns="http://www.w3.org/2000/svg">
<path fill-rule="evenodd" clip-rule="evenodd" d="M296 20C301.523 20 306 15.5228 306 10C306 4.47715 301.523 0 296 0C290.477 0 286 4.47715 286 10C286 15.5228 290.477 20 296 20ZM279.623 9L279.623 9.0625H9.99962C9.99987 9.0417 10 9.02086 10 9C10 6.23858 7.76142 4 5 4C2.23858 4 0 6.23858 0 9C0 11.7614 2.23858 14 5 14C7.39683 14 9.39976 12.3135 9.88688 10.0625H279.651C280.166 19.759 287.686 27.5 296.956 27.5C306.226 27.5 313.746 19.7591 314.261 10.0627L314.353 10.0628L316.019 10.0636L322.347 10.0666C327.8 10.0692 335.594 10.0727 344.956 10.0766C363.68 10.0844 388.676 10.0938 413.766 10.1001C451.148 10.1094 488.754 10.1119 506.12 10.0916C506.618 12.3281 508.614 14 511 14C513.396 14 515.398 12.3147 515.886 10.0649C515.946 10.064 515.989 10.0631 516.017 10.0622L515.991 9.29928C515.997 9.20027 516 9.10048 516 9C516 6.23858 513.761 4 511 4C508.239 4 506 6.23858 506 9C506 9.03069 506 9.06132 506.001 9.09189C488.607 9.11177 451.09 9.10944 413.766 9.10011C388.676 9.09384 363.68 9.08444 344.956 9.0766C335.595 9.07269 327.801 9.06916 322.348 9.06661L316.02 9.0636L314.353 9.06279L314.289 9.06275L314.289 9H313.289C313.289 18.6991 305.948 26.5 296.956 26.5C287.964 26.5 280.623 18.6991 280.623 9H279.623Z" fill="url(#paint0_linear_35_14315)"/>
<defs>
<linearGradient id="paint0_linear_35_14315" x1="0" y1="13.75" x2="516.017" y2="13.75" gradientUnits="userSpaceOnUse">
<stop offset="0.253125" stop-color="#590DA6"/>
<stop offset="1" stop-color="#D43F8D"/>
</linearGradient>
</defs>
</svg>
