<svg width="518" height="28" viewBox="0 0 518 28" fill="none" xmlns="http://www.w3.org/2000/svg">
<path fill-rule="evenodd" clip-rule="evenodd" d="M296.996 20C302.519 20 306.996 15.5228 306.996 10C306.996 4.47715 302.519 0 296.996 0C291.473 0 286.996 4.47715 286.996 10C286.996 15.5228 291.473 20 296.996 20ZM280.61 9L280.61 9.0625H10.9957C10.996 9.0417 10.9961 9.02086 10.9961 9C10.9961 6.23858 8.75752 4 5.99609 4C3.23467 4 0.996094 6.23858 0.996094 9C0.996094 11.7614 3.23467 14 5.99609 14C8.39292 14 10.3959 12.3135 10.883 10.0625H280.638C281.154 19.759 288.674 27.5 297.944 27.5C307.213 27.5 314.734 19.7591 315.249 10.0627L315.34 10.0628L317.007 10.0636L323.335 10.0666C328.788 10.0692 336.582 10.0727 345.944 10.0766C364.667 10.0844 389.663 10.0938 414.753 10.1001C452.145 10.1095 489.759 10.1119 507.12 10.0916C507.618 12.328 509.614 14 512 14C514.396 14 516.399 12.3146 516.887 10.0647C516.94 10.0639 516.979 10.0631 517.005 10.0622L516.983 9.41906C516.994 9.28089 517 9.14113 517 9C517 6.23858 514.762 4 512 4C509.239 4 507 6.23858 507 9C507 9.03069 507.001 9.06131 507.001 9.09187C489.612 9.11177 452.087 9.10944 414.754 9.10011C389.664 9.09384 364.668 9.08444 345.944 9.0766C336.582 9.07269 328.789 9.06916 323.335 9.06661L317.007 9.0636L315.341 9.06279L315.277 9.06275L315.277 9H314.277C314.277 18.6991 306.935 26.5 297.944 26.5C288.952 26.5 281.61 18.6991 281.61 9H280.61Z" fill="url(#paint0_linear_35_14568)"/>
<defs>
<linearGradient id="paint0_linear_35_14568" x1="0.996094" y1="13.75" x2="517.005" y2="13.75" gradientUnits="userSpaceOnUse">
<stop offset="0.253125" stop-color="#590DA6"/>
<stop offset="1" stop-color="#D43F8D"/>
</linearGradient>
</defs>
</svg>
