<svg width="613" height="396" viewBox="0 0 613 396" fill="none" xmlns="http://www.w3.org/2000/svg">
<path opacity="0.4" d="M361.962 270.494C295.493 316.465 229.769 350.037 177.25 367.159C150.987 375.721 128.049 380.161 109.982 379.996C91.9009 379.829 78.798 375.052 72.0507 365.299C65.3035 355.547 65.4549 341.604 71.677 324.629C77.8943 307.666 90.1411 287.772 107.418 266.222C141.967 223.125 196.569 173.477 263.038 127.506C329.507 81.5347 395.23 47.9626 447.751 30.8405C474.013 22.279 496.951 17.8385 515.018 18.0045C533.099 18.1713 546.202 22.9478 552.949 32.7008C559.697 42.4529 559.545 56.3961 553.323 73.3712C547.106 90.334 534.859 110.228 517.582 131.778C483.032 174.875 428.431 224.523 361.962 270.494Z" stroke="url(#paint0_linear_35_14122)"/>
<path opacity="0.4" d="M322.226 257.186C286.246 282.127 250.055 299.437 220.64 307.27C205.931 311.186 192.937 312.727 182.523 311.681C172.105 310.636 164.325 307.012 159.938 300.657C155.551 294.301 154.912 285.727 157.609 275.59C160.308 265.455 166.329 253.815 175.175 241.404C192.864 216.584 221.793 188.755 257.774 163.814C293.755 138.873 329.945 121.563 359.36 113.731C374.07 109.814 387.062 108.273 397.477 109.319C407.894 110.364 415.675 113.988 420.062 120.343C424.449 126.699 425.089 135.273 422.39 145.41C419.692 155.545 413.67 167.185 404.825 179.596C387.136 204.416 358.206 232.245 322.226 257.186Z" stroke="url(#paint1_linear_35_14122)"/>
<path d="M169.754 262.056C177.36 263.442 184.65 258.4 186.037 250.793C187.423 243.186 182.38 235.896 174.773 234.51C167.166 233.124 159.876 238.166 158.49 245.773C157.104 253.38 162.147 260.67 169.754 262.056Z" fill="url(#paint2_linear_35_14122)"/>
<path d="M237.689 151.102C241.764 151.844 245.67 149.143 246.412 145.068C247.155 140.993 244.454 137.087 240.378 136.345C236.303 135.602 232.398 138.303 231.655 142.378C230.913 146.454 233.614 150.359 237.689 151.102Z" fill="url(#paint3_linear_35_14122)"/>
<path d="M76.1904 325.689C82.4388 326.828 88.4271 322.685 89.5658 316.437C90.7044 310.189 86.5621 304.2 80.3137 303.062C74.0653 301.923 68.077 306.065 66.9384 312.314C65.7998 318.562 69.942 324.55 76.1904 325.689Z" fill="url(#paint4_linear_35_14122)"/>
<defs>
<linearGradient id="paint0_linear_35_14122" x1="553.289" y1="32.4654" x2="71.7589" y2="365.604" gradientUnits="userSpaceOnUse">
<stop stop-color="#D43F8D"/>
<stop offset="1" stop-color="#590DA6"/>
</linearGradient>
<linearGradient id="paint1_linear_35_14122" x1="420.401" y1="120.109" x2="159.244" y2="300.378" gradientUnits="userSpaceOnUse">
<stop stop-color="#D43F8D"/>
<stop offset="1" stop-color="#590DA6"/>
</linearGradient>
<linearGradient id="paint2_linear_35_14122" x1="174.773" y1="234.509" x2="169.754" y2="262.056" gradientUnits="userSpaceOnUse">
<stop stop-color="#651B42"/>
<stop offset="1" stop-color="#1D0A30"/>
</linearGradient>
<linearGradient id="paint3_linear_35_14122" x1="240.378" y1="136.345" x2="237.689" y2="151.101" gradientUnits="userSpaceOnUse">
<stop stop-color="#651B42"/>
<stop offset="1" stop-color="#1D0A30"/>
</linearGradient>
<linearGradient id="paint4_linear_35_14122" x1="80.3137" y1="303.062" x2="76.1905" y2="325.689" gradientUnits="userSpaceOnUse">
<stop stop-color="#651B42"/>
<stop offset="1" stop-color="#1D0A30"/>
</linearGradient>
</defs>
</svg>
