<svg width="291" height="28" viewBox="0 0 291 28" fill="none" xmlns="http://www.w3.org/2000/svg">
<path fill-rule="evenodd" clip-rule="evenodd" d="M147 20C152.523 20 157 15.5228 157 10C157 4.47715 152.523 0 147 0C141.477 0 137 4.47715 137 10C137 15.5228 141.477 20 147 20ZM129.623 10L129.623 10.0312H9.89353C9.96331 9.69847 10 9.35352 10 9C10 6.23858 7.76142 4 5 4C2.23858 4 0 6.23858 0 9C0 9.35352 0.0366886 9.69847 0.106466 10.0312H0V11.0312H0.429826C1.20844 12.7804 2.9618 14 5 14C7.0382 14 8.79156 12.7804 9.57017 11.0312H129.652C130.181 20.2139 137.72 27.5 146.956 27.5C156.192 27.5 163.731 20.2139 164.26 11.0312H281.43C282.208 12.7804 283.962 14 286 14C288.038 14 289.792 12.7804 290.57 11.0312H291V10.0312H290.894C290.963 9.69847 291 9.35352 291 9C291 6.23858 288.761 4 286 4C283.239 4 281 6.23858 281 9C281 9.35352 281.037 9.69847 281.106 10.0312H164.289L164.289 10H163.289C163.289 19.1193 155.974 26.5 146.956 26.5C137.938 26.5 130.623 19.1193 130.623 10H129.623Z" fill="url(#paint0_linear_35_14595)"/>
<defs>
<linearGradient id="paint0_linear_35_14595" x1="0" y1="13.75" x2="291" y2="13.75" gradientUnits="userSpaceOnUse">
<stop offset="0.253125" stop-color="#590DA6"/>
<stop offset="1" stop-color="#D43F8D"/>
</linearGradient>
</defs>
</svg>
